<svg
   xmlns:dc="http://purl.org/dc/elements/1.1/"
   xmlns:cc="http://creativecommons.org/ns#"
   xmlns:rdf="http://www.w3.org/1999/02/22-rdf-syntax-ns#"
   xmlns:svg="http://www.w3.org/2000/svg"
   xmlns="http://www.w3.org/2000/svg"
   xmlns:sodipodi="http://sodipodi.sourceforge.net/DTD/sodipodi-0.dtd"
   xmlns:inkscape="http://www.inkscape.org/namespaces/inkscape"
   width="23.871567mm"
   height="28.383554mm"
   viewBox="0 0 84.584292 100.57165"
   id="svg2"
   version="1.1"
   inkscape:version="0.91 r13725"
   sodipodi:docname="skull.svg">
  <defs
     id="defs4" />
  <sodipodi:namedview
     id="base"
     pagecolor="#ffffff"
     bordercolor="#666666"
     borderopacity="1.0"
     inkscape:pageopacity="0.0"
     inkscape:pageshadow="2"
     inkscape:zoom="5.5664032"
     inkscape:cx="40.379749"
     inkscape:cy="51.028834"
     inkscape:document-units="px"
     inkscape:current-layer="layer1"
     showgrid="false"
     fit-margin-top="0"
     fit-margin-left="0"
     fit-margin-right="0"
     fit-margin-bottom="0"
     inkscape:window-width="1366"
     inkscape:window-height="705"
     inkscape:window-x="-8"
     inkscape:window-y="-8"
     inkscape:window-maximized="1" />
  <metadata
     id="metadata7">
    <rdf:RDF>
      <cc:Work
         rdf:about="">
        <dc:format>image/svg+xml</dc:format>
        <dc:type
           rdf:resource="http://purl.org/dc/dcmitype/StillImage" />
        <dc:title></dc:title>
      </cc:Work>
    </rdf:RDF>
  </metadata>
  <g
     inkscape:label="Layer 1"
     inkscape:groupmode="layer"
     id="layer1"
     transform="translate(588.01202,-376.77442)">
    <path
       style="fill:#e6e6e6;fill-rule:evenodd;stroke:none;stroke-width:1px;stroke-linecap:butt;stroke-linejoin:miter;stroke-opacity:1"
       d="m -566.98413,467.28284 -5.02645,-21.11111 -8.04233,-1.00529 -4.52381,-8.04233 5.02646,-10.05291 -4.02117,-26.13757 4.52381,-8.54497 11.56085,-10.55556 16.5873,-4.02116 15.07936,1.50794 11.56085,4.02116 11.0582,11.0582 2.51323,39.20635 -10.55556,20.10582 -5.02645,16.08466 -15.58201,5.02645 -17.08995,-1.50793 z"
       id="path4161"
       inkscape:connector-curvature="0" />
    <path
       style="fill:#000000"
       d="m -547.94531,376.78125 c -8.67298,0.15106 -16.79297,2.91935 -25.21875,8.39844 -6.23406,4.05387 -7.60796,5.52094 -10.73242,11.46679 -3.18187,6.05512 -3.5931,7.69975 -3.6836,14.69336 -0.0774,5.97612 0.40001,9.01201 1.98438,12.59375 1.57001,3.54927 1.85619,5.33036 1.15234,7.18164 -0.51477,1.35395 -1.36603,2.46094 -1.89258,2.46094 -1.63478,0 -2.2628,3.81075 -1.02344,6.21289 2.12293,4.11461 5.23429,6.79121 9.09961,7.83203 4.76584,1.28331 6.15639,3.80308 6.34375,11.48438 0.13604,5.5774 0.44647,6.34515 4.14063,10.22851 4.68312,4.92298 9.17066,7.01022 15.20312,7.07422 2.3955,0.0254 4.6415,0.33292 4.99219,0.6836 0.35069,0.35073 1.99071,0.33701 3.64453,-0.0312 1.65381,-0.36825 4.44605,-0.81439 6.20508,-0.99024 1.75903,-0.17584 4.45903,-0.99427 6,-1.81836 1.54097,-0.82409 4.15583,-1.99687 5.81055,-2.60742 1.65473,-0.61056 4.46723,-2.47447 6.25,-4.14062 3.04795,-2.84856 3.24219,-3.43876 3.24219,-9.91211 0,-9.06403 1.03334,-11.54189 5.42187,-12.99024 3.70584,-1.22304 7.57813,-5.21371 7.57813,-7.81054 0,-0.83351 -1.19089,-3.9487 -2.64649,-6.92383 -2.92288,-5.97416 -3.06459,-7.91233 -1.24023,-16.97266 1.10373,-5.48144 1.02877,-6.89453 -0.66016,-12.47265 -2.83153,-9.35195 -9.96812,-16.35551 -20.45312,-20.07227 -6.32375,-2.24166 -12.17509,-3.438 -17.77539,-3.56445 -0.58337,-0.0132 -1.16399,-0.014 -1.74219,-0.004 z m 4.49804,3.2832 c 4.21091,-0.0186 7.30763,0.16857 7.51368,0.50196 0.27473,0.44451 2.69264,1.33549 5.37304,1.97851 6.14994,1.47535 11.89428,6.84485 10.32422,9.65039 -0.75062,1.34128 -0.51812,2.78378 0.89649,5.55664 2.27642,4.46216 2.48022,5.9586 0.44336,3.26563 -1.451,-1.91831 -1.4686,-1.91827 -1.5,-0.004 -0.0286,1.74349 -0.31153,1.66854 -2.83594,-0.75 -3.12014,-2.98929 -5.19531,-3.46385 -5.19531,-1.1875 0,0.825 0.5625,1.50763 1.25,1.51563 0.83791,0.0103 0.75549,0.34323 -0.25,1.01172 -1.25275,0.83289 -0.96092,1.45011 1.77148,3.73632 4.92257,4.11873 7.20183,8.11201 6.53516,11.44532 -0.39396,1.96983 -0.002,3.47156 1.27148,4.8789 1.80331,1.99263 1.77426,2.08613 -1.46484,4.6211 -2.73848,2.14352 -3.20855,3.06861 -2.74219,5.40039 0.30953,1.54769 0.12768,3.08333 -0.4043,3.41211 -0.53199,0.32879 -0.96679,0.11957 -0.96679,-0.46289 0,-0.58246 -0.3876,-1.0586 -0.86133,-1.0586 -0.47373,0 -0.62713,1.22958 -0.33985,2.73242 0.50999,2.66785 0.47772,2.68865 -1.3457,0.86524 -1.02716,-1.02716 -3.17183,-2.41692 -4.76758,-3.08789 l -2.90234,-1.21875 3.01172,-2.14649 c 1.65676,-1.17972 3.50677,-2.14453 4.10937,-2.14453 0.6026,0 1.09571,-0.44095 1.09571,-0.98047 0,-1.21654 -4.52307,-2.43354 -5.89454,-1.58593 -0.55367,0.34219 -1.43005,-0.1764 -1.94921,-1.1543 -0.84334,-1.58858 -0.406,-1.78962 4.10937,-1.88672 5.66688,-0.12187 7.73438,-1.87201 7.73438,-6.54492 0,-3.70096 -3.35277,-6.62734 -8.46875,-7.39453 -4.58891,-0.68815 -11.68917,0.8269 -13.3711,2.85351 -1.6477,1.98536 -2.56812,9.32439 -1.26953,10.12696 0.60924,0.37654 1.10938,1.57655 1.10938,2.66601 0,1.08945 0.90836,3.76332 2.01953,5.94141 1.11118,2.17809 1.67232,3.95898 1.24804,3.95898 -0.42427,0 -1.68951,-1.9125 -2.8125,-4.25 -1.79439,-3.73501 -2.49013,-4.28778 -5.74804,-4.56055 -3.28738,-0.27521 -3.7126,-0.0488 -3.7461,2 -0.0208,1.27072 -0.28369,4.01772 -0.58593,6.10352 -0.7769,5.36155 0.52556,6.4635 7.00976,5.92578 5.27167,-0.4372 5.41299,-0.38193 5.26563,2.07031 -0.0833,1.38583 -0.45799,2.32978 -0.83399,2.09766 -0.37599,-0.23212 -0.64621,0.91959 -0.59961,2.56055 0.0467,1.64096 0.43641,2.76698 0.86524,2.50195 0.42884,-0.26504 1.09309,0.026 1.47656,0.64649 0.80265,1.29872 -1.25533,2.86627 -3.79102,2.88867 -1.0193,0.009 -1.98792,-1.01221 -2.35742,-2.48438 -0.65833,-2.62301 -1.85013,-3.21521 -2.93554,-1.45898 -0.35375,0.57237 -1.5366,0.75683 -2.62891,0.41015 -1.4486,-0.45977 -2.12749,-0.0957 -2.50391,1.34375 -0.35533,1.35875 -1.11209,1.81723 -2.42968,1.47266 -1.05257,-0.27525 -1.91211,-1.01694 -1.91211,-1.64844 0,-0.6315 -0.92371,-2.86977 -2.05079,-4.97265 -1.59108,-2.96862 -1.78934,-4.13506 -0.88671,-5.22266 0.63939,-0.77046 1.5631,-1.15493 2.05078,-0.85352 0.48768,0.3014 0.88672,-0.0136 0.88672,-0.70117 0,-0.70661 0.58556,-0.44847 1.34765,0.59375 0.77653,1.062 1.85756,1.52883 2.54883,1.10156 0.8748,-0.54063 0.90303,-1.098 0.10742,-2.05664 -0.60039,-0.72343 -0.81841,-2.4054 -0.48437,-3.73632 0.38416,-1.53063 0.0722,-2.86387 -0.84961,-3.62891 -1.1864,-0.98462 -2.11936,-0.5846 -5.02344,2.1543 -5.22014,4.92323 -7.56965,12.75095 -4.21289,14.03906 0.83898,0.32194 1.39981,1.80718 1.34961,3.57422 -0.0473,1.66199 0.487,3.71063 1.1875,4.55469 1.42953,1.72248 4.0293,2.06792 4.0293,0.53515 0,-1.89193 4.17467,-1.04136 4.69726,0.95703 0.5578,2.13301 6.46134,4.58024 8.84375,3.66602 1.68625,-0.64708 4.45899,0.21755 4.45899,1.39062 0,0.43966 -0.9,0.56501 -2,0.27735 -2.76703,-0.7236 -2.53127,1.41102 0.25,2.26367 4.3787,1.34237 4.89948,2.42747 2.66992,5.55859 -2.30208,3.23299 -4.05896,3.62844 -5.95508,1.34375 -0.88808,-1.07006 -1.60104,-1.22318 -2.32422,-0.5 -1.39378,1.39381 -9.91816,1.33056 -13.05273,-0.0977 -1.9993,-0.91094 -2.71964,-2.27479 -3.56446,-6.75 -0.58231,-3.08461 -2.35395,-8.88545 -3.9375,-12.89063 -2.46435,-6.23295 -2.67764,-7.48447 -1.48242,-8.67969 1.61284,-1.61285 1.86848,-4.53906 0.39649,-4.53906 -0.55,0 -1,0.45 -1,1 0,0.55 -0.7875,1.01375 -1.75,1.03125 -2.40395,0.0437 -5.01748,2.20005 -4.50586,3.71875 0.28493,0.84578 -0.17215,1.02825 -1.41211,0.5625 -4.7235,-1.7742 -5.16875,-6.66585 -0.96875,-10.64648 3.20335,-3.03604 3.76676,-5.18604 2.16601,-8.27149 -1.25134,-2.41196 -1.1572,-3.02434 0.98633,-6.41992 1.30349,-2.06486 2.16516,-3.9579 1.91602,-4.20703 -0.43631,-0.43631 2.78675,-9.43273 4.6582,-13.00391 1.74355,-3.32712 0.8083,-3.23938 -2.13086,0.19922 -1.70518,1.995 -2.96561,2.84253 -2.97461,2 -0.0121,-1.15019 -0.19056,-1.18649 -0.83789,-0.16601 -0.65854,1.03814 -1.07619,0.99285 -2.08984,-0.22852 -0.89921,-1.08349 -1.77575,-1.25445 -3.01758,-0.58984 -1.65047,0.8833 -1.66354,0.6272 -0.23047,-4.52149 0.83542,-3.00149 1.83229,-5.45703 2.21484,-5.45703 0.38256,0 2.32868,-1.53984 4.32422,-3.42187 1.99553,-1.88204 6.09428,-4.58821 9.10742,-6.01368 4.66993,-2.20922 7.17885,-2.64952 17.00782,-2.98632 1.58546,-0.0543 3.11394,-0.0837 4.51757,-0.0898 z m 4.67969,12.51172 c -1.52901,0 -8.66015,7.37579 -8.66015,8.95703 0,1.88531 1.63524,1.09135 2.99804,-1.45508 0.73544,-1.37416 1.5665,-2.26943 1.84571,-1.99023 0.61278,0.61279 5.15625,-3.51597 5.15625,-4.68555 0,-0.45413 -0.6032,-0.82617 -1.33985,-0.82617 z m -40.58594,11 c 0.4739,0 0.60369,0.675 0.28711,1.5 -0.31659,0.825 -0.96361,1.5 -1.4375,1.5 -0.4739,0 -0.60369,-0.675 -0.28711,-1.5 0.31659,-0.825 0.96361,-1.5 1.4375,-1.5 z m 32.81836,2 c -1.25468,0 -1.11172,1.38239 0.28907,2.78321 0.65084,0.65084 1.33632,1.03089 1.52343,0.84374 0.6109,-0.61089 -0.89604,-3.62695 -1.8125,-3.62695 z m -31.08984,0.19922 c 0.10479,-0.002 0.16602,0.0945 0.16602,0.30078 0,0.55 -0.43559,1.675 -0.96875,2.5 -0.53316,0.825 -0.97071,1.05 -0.97071,0.5 0,-0.55 0.43755,-1.675 0.97071,-2.5 0.33322,-0.51562 0.62807,-0.79663 0.80273,-0.80078 z m 18.85547,1.91797 c -2.26213,0.10617 -4.55293,0.74017 -6.42383,1.88086 -1.79609,1.09509 -3.81229,1.88268 -4.48047,1.74805 -0.72087,-0.14526 -1.59561,1.6805 -2.15039,4.49218 -0.799,4.04938 -0.66383,5.03801 0.92969,6.79883 1.61649,1.7862 2.76552,2.00732 8.63867,1.65625 5.8975,-0.35252 7.17255,-0.79465 9.84375,-3.40625 2.57381,-2.51637 3.0065,-3.60877 2.68164,-6.77539 -0.27823,-2.71211 -1.06497,-4.14988 -2.79297,-5.10742 -1.75168,-0.97067 -3.98397,-1.39328 -6.24609,-1.28711 z m 8.29883,43.2168 c 1.62633,0 3.18539,0.59869 3.46679,1.33203 0.31174,0.81236 -0.15797,1.28945 -1.20507,1.21875 -5.34932,-0.36106 -7.29088,-2.55078 -2.26172,-2.55078 z m 24.27734,3.08593 c 0.80865,0.13274 -1.29081,6.56082 -3.39258,10.12305 -1.12205,1.90174 -2.33322,3.44308 -2.6914,3.42578 -0.35817,-0.0173 -1.4934,-1.18834 -2.52344,-2.60156 -1.84711,-2.53425 -1.84627,-2.55353 0.11133,-1.50586 1.60138,0.85704 2.38363,0.63376 4.04883,-1.15039 1.13512,-1.21623 2.37134,-3.453 2.74804,-4.9707 0.3767,-1.5177 1.05163,-2.98387 1.49805,-3.25977 0.0806,-0.0498 0.14726,-0.0694 0.20117,-0.0606 z m -20.79492,1.58008 c 4.27468,0 5.56055,0.34655 5.56055,1.5 0,0.825 -0.45,1.5 -1,1.5 -0.55,0 -1,-0.50567 -1,-1.12305 0,-0.76402 -0.39916,-0.80293 -1.25,-0.12304 -0.6875,0.54937 -2.15,0.66128 -3.25,0.24804 -1.1,-0.4132 -2.30715,-0.57452 -2.68165,-0.35937 -0.3745,0.21515 -0.96313,-0.066 -1.30859,-0.625 -0.39669,-0.64186 1.41884,-1.01758 4.92969,-1.01758 z m 8.61914,0 c 0.51754,0 0.94141,0.45 0.94141,1 0,0.55 -0.70309,1 -1.56055,1 -0.85748,0 -1.27937,-0.45 -0.93945,-1 0.33992,-0.55 1.04105,-1 1.55859,-1 z m -24.2168,1.45899 c -0.63419,0.1064 -0.75592,1.19919 -0.36718,3.27929 0.38668,2.06921 1.16819,4.32422 1.73632,5.01172 1.28416,1.55398 2.78907,1.62414 2.78907,0.12891 0,-0.82594 0.35467,-0.82901 1.34179,-0.01 2.77511,2.30314 2.44463,-0.25187 -0.50781,-3.92578 -2.51324,-3.1274 -4.1768,-4.62118 -4.99219,-4.48437 z m 5.90039,2.77539 c -0.17745,-0.021 -0.319,0.008 -0.41015,0.0996 -0.35992,0.35993 0.16357,1.55678 1.16211,2.66015 1.88671,2.08479 3.50586,2.62197 3.50586,1.16211 0,-1.16062 -3.01564,-3.77508 -4.25782,-3.92187 z"
       id="path4147"
       inkscape:connector-curvature="0" />
  </g>
</svg>