<svg width="50" height="50" viewBox="0 0 50 50" fill="none" xmlns="http://www.w3.org/2000/svg">
<path d="M32.7164 25L32.3629 25.3536L16.8973 40.8191C16.421 41.3139 16.1575 41.9757 16.1634 42.6625C16.1694 43.3508 16.4455 44.0092 16.9322 44.4959C17.4189 44.9826 18.0773 45.2586 18.7655 45.2646C19.4524 45.2706 20.1142 45.0071 20.609 44.5307L38.2838 26.8559C38.2839 26.8559 38.2839 26.8558 38.2839 26.8558C38.776 26.3636 39.0524 25.696 39.0524 25C39.0524 24.304 38.776 23.6364 38.2839 23.1442L38.2838 23.1441M32.7164 25L38.2838 23.1441M32.7164 25L32.3629 24.6464L16.8942 9.17775M32.7164 25L16.8942 9.17775M38.2838 23.1441L20.6058 5.4661C20.6058 5.46609 20.6058 5.46607 20.6058 5.46605C20.1135 4.97397 19.446 4.69754 18.7499 4.69754C18.0539 4.69754 17.3864 4.97395 16.8942 5.466C16.8941 5.46603 16.8941 5.46607 16.8941 5.4661M38.2838 23.1441L16.5406 9.53125C15.9547 8.94522 15.6256 8.15051 15.6256 7.32187C15.6256 6.49323 15.9547 5.69852 16.5406 5.1125L16.8941 5.4661M16.8941 5.4661C16.402 5.95836 16.1256 6.62587 16.1256 7.32187C16.1256 8.0179 16.402 8.68544 16.8941 9.17769C16.8941 9.17771 16.8942 9.17773 16.8942 9.17775M16.8941 5.4661L16.8942 9.17775" fill="#ED6C30" stroke="black"/>
</svg>
