<svg width="50" height="50" viewBox="0 0 50 50" fill="none" xmlns="http://www.w3.org/2000/svg">
<path d="M17.6371 24.6464L17.2835 25L17.6371 25.3536L33.1027 40.8191C33.579 41.3139 33.8425 41.9757 33.8365 42.6625C33.8305 43.3508 33.5544 44.0092 33.0678 44.4959C32.5811 44.9826 31.9227 45.2586 31.2344 45.2646C30.5475 45.2706 29.8857 45.0071 29.3909 44.5307L11.7161 26.8559C11.7161 26.8559 11.7161 26.8558 11.7161 26.8558C11.224 26.3636 10.9475 25.696 10.9475 25C10.9475 24.3039 11.224 23.6364 11.7161 23.1441L29.3941 5.46611C29.8864 4.97399 30.5539 4.69754 31.25 4.69754C31.946 4.69754 32.6135 4.97395 33.1058 5.466C33.5979 5.95826 33.8743 6.62582 33.8743 7.32187C33.8743 8.01793 33.5979 8.68549 33.1058 9.17775L17.6371 24.6464Z" fill="#ED6C30" stroke="black"/>
</svg>
