<svg width="128" height="128" viewBox="0 0 128 128" fill="none" xmlns="http://www.w3.org/2000/svg">
<path d="M127.34 59.75C126.97 49.8 127.26 39.84 125.66 29.98C124.43 22.35 121.82 16.48 113.87 14.83C113.87 14.83 113.57 14.69 111.78 14.49C110.45 14.31 109.1 14.21 107.75 14.16C101.4 13.75 88.54 13.31 62.63 13.31C41.3 13.31 29.13 13.71 22.31 14.09C19.81 14.14 17.27 14.28 14.84 14.71C14.32 14.79 14.12 14.83 14.12 14.83C6.17999 16.48 3.56999 22.34 2.33999 29.98C0.739989 39.84 1.02999 49.8 0.659989 59.75C0.189989 72.42 -0.130011 85.11 1.33999 97.73C1.66999 100.52 2.24999 103.7 3.30999 106.3C6.29999 113.71 16.65 113.55 22.94 113.97C33.75 114.7 44.63 114.74 55.46 114.64C58.31 114.62 61.16 114.57 64.01 114.5C66.86 114.56 69.72 114.61 72.56 114.64C83.39 114.74 94.27 114.69 105.08 113.97C111.36 113.55 121.71 113.71 124.71 106.3C125.76 103.7 126.34 100.52 126.67 97.73C128.13 85.11 127.82 72.42 127.34 59.75Z" fill="#2F2F2F"/>
<path d="M19.75 104.98C17.59 105.04 15.44 105.2 13.28 105.22C6.69 105.27 7.52 97.87 7.2 92.82C7.04 90.32 6.97 87.8 7.08 85.29C7.12 84.35 7.06 79.17 8.62 79.19C9.53 79.2 10.43 79.17 11.34 79.12C12.01 79.08 12.49 78.92 12.88 79.44L12.98 79.59C15.31 83.61 16.71 88.51 17.76 93.07C18.03 94.17 19.96 104.97 19.75 104.98ZM28.3 28.49C27.83 31.92 27.17 35.24 26.41 38.46C23.92 49.02 21.1 59.28 17.33 67.8C16.6 69.45 15.81 71.01 14.98 72.56C14.68 73.14 14.54 73.62 13.93 73.83L12.64 73.73C12.51 73.2 12.81 72.43 12.92 71.88C13.04 71.18 13.19 70.48 13.31 69.76C13.58 68.16 13.72 66.51 13.58 64.86C13.55 64.51 13.69 62.31 13.35 62.18C12.77 61.94 11.7 65.5 11.59 65.92C11.38 66.72 11.14 67.54 10.85 68.3C10.44 69.38 10.07 70.45 9.63 71.5C9.35 72.17 9.05 72.68 8.72 73.3C8.52 73.67 8.44 73.91 8 73.98C7.68 74.03 7.25 74.01 6.99 73.78C6.65 73.45 6.78 72.93 6.79 72.48C6.81 71.3 6.89 70.11 6.92 68.9C6.98 66.7 7.06 64.46 7.14 62.18C7.31 56.88 7.57 51.37 7.97 45.63C8.35 40.06 8.6 34.1 9.88 28.21C10.16 26.96 10.32 24.02 11.66 23.76L11.85 23.74H11.68C12.2 23.73 12.7 23.44 13.22 23.4C14.09 23.33 14.95 23.33 15.82 23.28C17.52 23.19 19.22 23.08 20.91 23.08C22.73 23.09 24.49 23.24 26.31 23.24C26.9 23.24 28.14 23.17 28.48 23.84C28.98 24.88 28.45 27.41 28.3 28.49ZM120.94 92.82C120.63 97.86 121.46 105.27 114.86 105.22C112.71 105.2 111.44 105.04 109.29 104.98C109.08 104.98 110.12 94.18 110.37 93.08C111.42 88.52 112.81 83.62 115.15 79.6L115.25 79.45C115.64 78.93 116.12 79.09 116.79 79.13C117.69 79.18 118.6 79.21 119.5 79.2C121.06 79.18 121 84.37 121.05 85.3C121.18 87.8 121.09 90.32 120.94 92.82ZM121.16 73.78C120.9 74.02 120.47 74.03 120.15 73.98C119.72 73.91 119.63 73.66 119.44 73.3C119.11 72.68 118.81 72.16 118.53 71.5C118.08 70.45 117.72 69.38 117.31 68.3C117.02 67.54 116.78 66.72 116.57 65.92C116.46 65.5 115.39 61.94 114.82 62.18C114.49 62.32 114.62 64.51 114.59 64.86C114.45 66.51 114.59 68.17 114.86 69.76C114.98 70.47 115.13 71.18 115.25 71.88C115.35 72.43 115.65 73.2 115.52 73.73L114.23 73.83C113.62 73.62 113.48 73.14 113.18 72.56C112.36 71.01 111.56 69.45 110.83 67.8C107.05 59.28 104.24 49.02 101.74 38.46C100.98 35.24 100.32 31.92 99.85 28.49C99.7 27.4 99.18 24.88 99.68 23.86C100.01 23.18 101.26 23.26 101.85 23.26C103.66 23.26 105.43 23.11 107.25 23.1C108.95 23.1 110.65 23.2 112.34 23.3C113.21 23.35 114.08 23.35 114.94 23.42C115.47 23.46 115.95 23.75 116.48 23.76H116.31L116.5 23.78C117.85 24.04 118.01 26.98 118.28 28.23C119.56 34.12 119.82 40.08 120.19 45.65C120.57 51.39 120.85 56.9 121.02 62.2C121.09 64.48 121.17 66.72 121.23 68.92C121.27 70.13 121.34 71.32 121.36 72.5C121.37 72.93 121.5 73.45 121.16 73.78Z" fill="#ED6C30"/>
<path d="M97.95 69.2V39.71C97.95 39.71 98.19 37.96 95.6 38.68C94.3 39.04 83.44 42.09 63.3 42.09C43.14 42.09 33.88 39.04 32.59 38.68C30 37.96 30.24 39.71 30.24 39.71V80.77C30.24 80.77 30 82.52 32.59 81.8C33.88 81.44 48.99 78.21 64.1 78.21C79.21 78.21 94.31 81.44 95.61 81.8C98.2 82.52 97.96 80.77 97.96 80.77V69.2H97.95Z" fill="white"/>
<path d="M34.27 23.17C34.33 28.05 38.11 31.99 42.78 31.99C47.45 31.99 51.23 28.05 51.29 23.17H34.27ZM63.19 23.17C63.25 28.05 67.04 31.99 71.7 31.99C76.37 31.99 80.16 28.05 80.22 23.17H63.19Z" fill="#ED6C30"/>
<path d="M77.2 23.17C77.26 28.05 81.04 31.99 85.71 31.99C90.38 31.99 94.16 28.05 94.22 23.17H77.2ZM49.02 23.17C49.08 28.05 52.86 31.99 57.53 31.99C62.2 31.99 65.98 28.05 66.05 23.17H49.02Z" fill="#ED6C30"/>
<path d="M73.24 98.59C68.89 98.5 68.97 98.93 64.84 98.93C60.71 98.93 60.79 98.5 56.43 98.59C52.08 98.68 52.01 106.23 52.01 106.23C57.08 107.7 72.59 107.7 77.67 106.23C77.67 106.23 77.59 98.68 73.24 98.59ZM71.37 90.05C67.99 89.99 68.05 90.28 64.83 90.28C61.61 90.28 61.68 89.99 58.29 90.05C54.9 90.11 54.85 95.27 54.85 95.27C58.8 96.27 70.86 96.27 74.81 95.27C74.82 95.27 74.77 90.11 71.37 90.05ZM69.14 84.15C66.9 84.11 66.95 84.3 64.82 84.3C62.69 84.3 62.74 84.12 60.5 84.15C58.26 84.19 58.22 87.42 58.22 87.42C60.83 88.05 68.81 88.05 71.42 87.42C71.42 87.42 71.38 84.18 69.14 84.15ZM44.31 98.59C39.96 98.5 40.04 98.93 35.9 98.93C31.76 98.93 31.85 98.5 27.5 98.59C23.15 98.68 23.07 106.23 23.07 106.23C28.15 107.7 43.66 107.7 48.73 106.23C48.73 106.23 48.66 98.68 44.31 98.59ZM46.44 90.05C43.06 89.99 43.12 90.28 39.9 90.28C36.68 90.28 36.75 89.99 33.36 90.05C29.97 90.11 29.92 95.27 29.92 95.27C33.87 96.27 45.93 96.27 49.88 95.27C49.88 95.27 49.83 90.11 46.44 90.05ZM49.14 84.15C46.9 84.11 46.95 84.3 44.82 84.3C42.69 84.3 42.74 84.12 40.5 84.15C38.26 84.19 38.22 87.42 38.22 87.42C40.83 88.05 48.81 88.05 51.42 87.42C51.41 87.42 51.38 84.18 49.14 84.15ZM85.04 98.59C89.39 98.5 89.31 98.93 93.45 98.93C97.59 98.93 97.5 98.5 101.85 98.59C106.2 98.68 106.28 106.23 106.28 106.23C101.2 107.7 85.7 107.7 80.62 106.23C80.62 106.23 80.69 98.68 85.04 98.59ZM82.91 90.05C86.29 89.99 86.23 90.28 89.45 90.28C92.67 90.28 92.6 89.99 95.99 90.05C99.38 90.11 99.43 95.27 99.43 95.27C95.48 96.27 83.42 96.27 79.47 95.27C79.47 95.27 79.52 90.11 82.91 90.05ZM80.21 84.15C82.45 84.11 82.4 84.3 84.53 84.3C86.66 84.3 86.61 84.12 88.85 84.15C91.09 84.19 91.13 87.42 91.13 87.42C88.52 88.05 80.54 88.05 77.93 87.42C77.93 87.42 77.97 84.18 80.21 84.15Z" fill="#ED6C30"/>
<path d="M46.5723 62.1699H48.3242C48.2891 62.7441 48.1309 63.2539 47.8496 63.6992C47.5723 64.1445 47.1836 64.4922 46.6836 64.7422C46.1875 64.9922 45.5898 65.1172 44.8906 65.1172C44.3438 65.1172 43.8535 65.0234 43.4199 64.8359C42.9863 64.6445 42.6152 64.3711 42.3066 64.0156C42.002 63.6602 41.7695 63.2305 41.6094 62.7266C41.4492 62.2227 41.3691 61.6582 41.3691 61.0332V60.4414C41.3691 59.8164 41.4512 59.252 41.6152 58.748C41.7832 58.2402 42.0215 57.8086 42.3301 57.4531C42.6426 57.0977 43.0156 56.8242 43.4492 56.6328C43.8828 56.4414 44.3672 56.3457 44.9023 56.3457C45.6133 56.3457 46.2129 56.4746 46.7012 56.7324C47.1934 56.9902 47.5742 57.3457 47.8438 57.7988C48.1172 58.252 48.2812 58.7676 48.3359 59.3457H46.5781C46.5586 59.002 46.4902 58.7109 46.373 58.4727C46.2559 58.2305 46.0781 58.0488 45.8398 57.9277C45.6055 57.8027 45.293 57.7402 44.9023 57.7402C44.6094 57.7402 44.3535 57.7949 44.1348 57.9043C43.916 58.0137 43.7324 58.1797 43.584 58.4023C43.4355 58.625 43.3242 58.9062 43.25 59.2461C43.1797 59.582 43.1445 59.9766 43.1445 60.4297V61.0332C43.1445 61.4746 43.1777 61.8633 43.2441 62.1992C43.3105 62.5312 43.4121 62.8125 43.5488 63.043C43.6895 63.2695 43.8691 63.4414 44.0879 63.5586C44.3105 63.6719 44.5781 63.7285 44.8906 63.7285C45.2578 63.7285 45.5605 63.6699 45.7988 63.5527C46.0371 63.4355 46.2188 63.2617 46.3438 63.0312C46.4727 62.8008 46.5488 62.5137 46.5723 62.1699ZM51.3477 56.4688V65H49.5957V56.4688H51.3477ZM59.9375 56.4688V65H58.1797L54.752 59.2812V65H52.9941V56.4688H54.752L58.1855 62.1934V56.4688H59.9375ZM67.1914 63.6289V65H62.6504V63.6289H67.1914ZM63.2246 56.4688V65H61.4668V56.4688H63.2246ZM66.5996 59.9434V61.2793H62.6504V59.9434H66.5996ZM67.1855 56.4688V57.8457H62.6504V56.4688H67.1855ZM69.0195 56.4688H70.5078L72.6992 62.7324L74.8906 56.4688H76.3789L73.2969 65H72.1016L69.0195 56.4688ZM68.2168 56.4688H69.6992L69.9688 62.5742V65H68.2168V56.4688ZM75.6992 56.4688H77.1875V65H75.4297V62.5742L75.6992 56.4688ZM82.3027 57.9277L79.9824 65H78.1133L81.2832 56.4688H82.4727L82.3027 57.9277ZM84.2305 65L81.9043 57.9277L81.7168 56.4688H82.918L86.1055 65H84.2305ZM84.125 61.8242V63.2012H79.6191V61.8242H84.125Z" fill="black"/>
</svg>
