<svg width="128" height="128" viewBox="0 0 128 128" fill="none" xmlns="http://www.w3.org/2000/svg">
<path d="M127.34 59.75C126.97 49.8 127.26 39.84 125.66 29.98C124.43 22.35 121.82 16.48 113.87 14.83C113.87 14.83 113.57 14.69 111.78 14.49C110.45 14.31 109.1 14.21 107.75 14.16C101.4 13.75 88.54 13.31 62.63 13.31C41.3 13.31 29.13 13.71 22.31 14.09C19.81 14.14 17.27 14.28 14.84 14.71C14.32 14.79 14.12 14.83 14.12 14.83C6.17999 16.48 3.56999 22.34 2.33999 29.98C0.739989 39.84 1.02999 49.8 0.659989 59.75C0.189989 72.42 -0.130011 85.11 1.33999 97.73C1.66999 100.52 2.24999 103.7 3.30999 106.3C6.29999 113.71 16.65 113.55 22.94 113.97C33.75 114.7 44.63 114.74 55.46 114.64C58.31 114.62 61.16 114.57 64.01 114.5C66.86 114.56 69.72 114.61 72.56 114.64C83.39 114.74 94.27 114.69 105.08 113.97C111.36 113.55 121.71 113.71 124.71 106.3C125.76 103.7 126.34 100.52 126.67 97.73C128.13 85.11 127.82 72.42 127.34 59.75Z" fill="#2F2F2F"/>
<path d="M19.75 104.98C17.59 105.04 15.44 105.2 13.28 105.22C6.68997 105.27 7.51997 97.87 7.19997 92.82C7.03997 90.32 6.96997 87.8 7.07997 85.29C7.11997 84.35 7.05997 79.17 8.61997 79.19C9.52997 79.2 10.43 79.17 11.34 79.12C12.01 79.08 12.49 78.92 12.88 79.44L12.98 79.59C15.31 83.61 16.71 88.51 17.76 93.07C18.03 94.17 19.96 104.97 19.75 104.98ZM28.3 28.49C27.83 31.92 27.17 35.24 26.41 38.46C23.92 49.02 21.1 59.28 17.33 67.8C16.6 69.45 15.81 71.01 14.98 72.56C14.68 73.14 14.54 73.62 13.93 73.83L12.64 73.73C12.51 73.2 12.81 72.43 12.92 71.88C13.04 71.18 13.19 70.48 13.31 69.76C13.58 68.16 13.72 66.51 13.58 64.86C13.55 64.51 13.69 62.31 13.35 62.18C12.77 61.94 11.7 65.5 11.59 65.92C11.38 66.72 11.14 67.54 10.85 68.3C10.44 69.38 10.07 70.45 9.62997 71.5C9.34997 72.17 9.04997 72.68 8.71997 73.3C8.51997 73.67 8.43997 73.91 7.99997 73.98C7.67997 74.03 7.24997 74.01 6.98997 73.78C6.64997 73.45 6.77997 72.93 6.78997 72.48C6.80997 71.3 6.88997 70.11 6.91997 68.9C6.97997 66.7 7.05997 64.46 7.13997 62.18C7.30997 56.88 7.56997 51.37 7.96997 45.63C8.34997 40.06 8.59997 34.1 9.87997 28.21C10.16 26.96 10.32 24.02 11.66 23.76L11.85 23.74H11.68C12.2 23.73 12.7 23.44 13.22 23.4C14.09 23.33 14.95 23.33 15.82 23.28C17.52 23.19 19.22 23.08 20.91 23.08C22.73 23.09 24.49 23.24 26.31 23.24C26.9 23.24 28.14 23.17 28.48 23.84C28.98 24.88 28.45 27.41 28.3 28.49ZM120.94 92.82C120.63 97.86 121.46 105.27 114.86 105.22C112.71 105.2 111.44 105.04 109.29 104.98C109.08 104.98 110.12 94.18 110.37 93.08C111.42 88.52 112.81 83.62 115.15 79.6L115.25 79.45C115.64 78.93 116.12 79.09 116.79 79.13C117.69 79.18 118.6 79.21 119.5 79.2C121.06 79.18 121 84.37 121.05 85.3C121.18 87.8 121.09 90.32 120.94 92.82ZM121.16 73.78C120.9 74.02 120.47 74.03 120.15 73.98C119.72 73.91 119.63 73.66 119.44 73.3C119.11 72.68 118.81 72.16 118.53 71.5C118.08 70.45 117.72 69.38 117.31 68.3C117.02 67.54 116.78 66.72 116.57 65.92C116.46 65.5 115.39 61.94 114.82 62.18C114.49 62.32 114.62 64.51 114.59 64.86C114.45 66.51 114.59 68.17 114.86 69.76C114.98 70.47 115.13 71.18 115.25 71.88C115.35 72.43 115.65 73.2 115.52 73.73L114.23 73.83C113.62 73.62 113.48 73.14 113.18 72.56C112.36 71.01 111.56 69.45 110.83 67.8C107.05 59.28 104.24 49.02 101.74 38.46C100.98 35.24 100.32 31.92 99.85 28.49C99.7 27.4 99.18 24.88 99.68 23.86C100.01 23.18 101.26 23.26 101.85 23.26C103.66 23.26 105.43 23.11 107.25 23.1C108.95 23.1 110.65 23.2 112.34 23.3C113.21 23.35 114.08 23.35 114.94 23.42C115.47 23.46 115.95 23.75 116.48 23.76H116.31L116.5 23.78C117.85 24.04 118.01 26.98 118.28 28.23C119.56 34.12 119.82 40.08 120.19 45.65C120.57 51.39 120.85 56.9 121.02 62.2C121.09 64.48 121.17 66.72 121.23 68.92C121.27 70.13 121.34 71.32 121.36 72.5C121.37 72.93 121.5 73.45 121.16 73.78Z" fill="#ED6C30"/>
<path d="M97.95 69.2V39.71C97.95 39.71 98.19 37.96 95.6 38.68C94.3 39.04 83.44 42.09 63.3 42.09C43.14 42.09 33.88 39.04 32.59 38.68C30 37.96 30.24 39.71 30.24 39.71V80.77C30.24 80.77 30 82.52 32.59 81.8C33.88 81.44 48.99 78.21 64.1 78.21C79.21 78.21 94.31 81.44 95.61 81.8C98.2 82.52 97.96 80.77 97.96 80.77V69.2H97.95Z" fill="white"/>
<path d="M34.27 23.17C34.33 28.05 38.11 31.99 42.78 31.99C47.45 31.99 51.23 28.05 51.29 23.17H34.27ZM63.19 23.17C63.25 28.05 67.04 31.99 71.7 31.99C76.37 31.99 80.16 28.05 80.22 23.17H63.19Z" fill="#ED6C30"/>
<path d="M77.2 23.17C77.26 28.05 81.04 31.99 85.71 31.99C90.38 31.99 94.16 28.05 94.22 23.17H77.2ZM49.02 23.17C49.08 28.05 52.86 31.99 57.53 31.99C62.2 31.99 65.98 28.05 66.05 23.17H49.02Z" fill="#ED6C30"/>
<path d="M73.24 98.59C68.89 98.5 68.97 98.93 64.84 98.93C60.71 98.93 60.79 98.5 56.43 98.59C52.08 98.68 52.01 106.23 52.01 106.23C57.08 107.7 72.59 107.7 77.67 106.23C77.67 106.23 77.59 98.68 73.24 98.59ZM71.37 90.05C67.99 89.99 68.05 90.28 64.83 90.28C61.61 90.28 61.68 89.99 58.29 90.05C54.9 90.11 54.85 95.27 54.85 95.27C58.8 96.27 70.86 96.27 74.81 95.27C74.82 95.27 74.77 90.11 71.37 90.05ZM69.14 84.15C66.9 84.11 66.95 84.3 64.82 84.3C62.69 84.3 62.74 84.12 60.5 84.15C58.26 84.19 58.22 87.42 58.22 87.42C60.83 88.05 68.81 88.05 71.42 87.42C71.42 87.42 71.38 84.18 69.14 84.15ZM44.31 98.59C39.96 98.5 40.04 98.93 35.9 98.93C31.76 98.93 31.85 98.5 27.5 98.59C23.15 98.68 23.07 106.23 23.07 106.23C28.15 107.7 43.66 107.7 48.73 106.23C48.73 106.23 48.66 98.68 44.31 98.59ZM46.44 90.05C43.06 89.99 43.12 90.28 39.9 90.28C36.68 90.28 36.75 89.99 33.36 90.05C29.97 90.11 29.92 95.27 29.92 95.27C33.87 96.27 45.93 96.27 49.88 95.27C49.88 95.27 49.83 90.11 46.44 90.05ZM49.14 84.15C46.9 84.11 46.95 84.3 44.82 84.3C42.69 84.3 42.74 84.12 40.5 84.15C38.26 84.19 38.22 87.42 38.22 87.42C40.83 88.05 48.81 88.05 51.42 87.42C51.41 87.42 51.38 84.18 49.14 84.15ZM85.04 98.59C89.39 98.5 89.31 98.93 93.45 98.93C97.59 98.93 97.5 98.5 101.85 98.59C106.2 98.68 106.28 106.23 106.28 106.23C101.2 107.7 85.7 107.7 80.62 106.23C80.62 106.23 80.69 98.68 85.04 98.59ZM82.91 90.05C86.29 89.99 86.23 90.28 89.45 90.28C92.67 90.28 92.6 89.99 95.99 90.05C99.38 90.11 99.43 95.27 99.43 95.27C95.48 96.27 83.42 96.27 79.47 95.27C79.47 95.27 79.52 90.11 82.91 90.05ZM80.21 84.15C82.45 84.11 82.4 84.3 84.53 84.3C86.66 84.3 86.61 84.12 88.85 84.15C91.09 84.19 91.13 87.42 91.13 87.42C88.52 88.05 80.54 88.05 77.93 87.42C77.93 87.42 77.97 84.18 80.21 84.15Z" fill="#ED6C30"/>
</svg>
