<svg width="128" height="128" viewBox="0 0 128 128" fill="none" xmlns="http://www.w3.org/2000/svg">
<path d="M63.65 8.06999C106.31 8.27999 123.59 30.53 123.91 58.22C124.09 73.7 114.12 87.06 98.84 95.2C91.39 100.47 100.26 117.74 107.36 122.15C107.36 122.15 82.26 120.44 75.34 102.75C71.52 103.31 67.59 103.6 63.56 103.6C30.28 103.6 3.39 85.92 3.39 58.22C3.39 30.52 20.58 7.85999 63.65 8.06999Z" fill="white" stroke="black" stroke-width="6" stroke-miterlimit="10" stroke-linejoin="round"/>
<path d="M36.9102 60.3398H40.4141C40.3438 61.4883 40.0273 62.5078 39.4648 63.3984C38.9102 64.2891 38.1328 64.9844 37.1328 65.4844C36.1406 65.9844 34.9453 66.2344 33.5469 66.2344C32.4531 66.2344 31.4727 66.0469 30.6055 65.6719C29.7383 65.2891 28.9961 64.7422 28.3789 64.0312C27.7695 63.3203 27.3047 62.4609 26.9844 61.4531C26.6641 60.4453 26.5039 59.3164 26.5039 58.0664V56.8828C26.5039 55.6328 26.668 54.5039 26.9961 53.4961C27.332 52.4805 27.8086 51.6172 28.4258 50.9062C29.0508 50.1953 29.7969 49.6484 30.6641 49.2656C31.5312 48.8828 32.5 48.6914 33.5703 48.6914C34.9922 48.6914 36.1914 48.9492 37.168 49.4648C38.1523 49.9805 38.9141 50.6914 39.4531 51.5977C40 52.5039 40.3281 53.5352 40.4375 54.6914H36.9219C36.8828 54.0039 36.7461 53.4219 36.5117 52.9453C36.2773 52.4609 35.9219 52.0977 35.4453 51.8555C34.9766 51.6055 34.3516 51.4805 33.5703 51.4805C32.9844 51.4805 32.4727 51.5898 32.0352 51.8086C31.5977 52.0273 31.2305 52.3594 30.9336 52.8047C30.6367 53.25 30.4141 53.8125 30.2656 54.4922C30.125 55.1641 30.0547 55.9531 30.0547 56.8594V58.0664C30.0547 58.9492 30.1211 59.7266 30.2539 60.3984C30.3867 61.0625 30.5898 61.625 30.8633 62.0859C31.1445 62.5391 31.5039 62.8828 31.9414 63.1172C32.3867 63.3438 32.9219 63.457 33.5469 63.457C34.2812 63.457 34.8867 63.3398 35.3633 63.1055C35.8398 62.8711 36.2031 62.5234 36.4531 62.0625C36.7109 61.6016 36.8633 61.0273 36.9102 60.3398ZM56.7383 57.0703V57.8789C56.7383 59.1758 56.5625 60.3398 56.2109 61.3711C55.8594 62.4023 55.3633 63.2812 54.7227 64.0078C54.082 64.7266 53.3164 65.2773 52.4258 65.6602C51.543 66.043 50.5625 66.2344 49.4844 66.2344C48.4141 66.2344 47.4336 66.043 46.543 65.6602C45.6602 65.2773 44.8945 64.7266 44.2461 64.0078C43.5977 63.2812 43.0938 62.4023 42.7344 61.3711C42.3828 60.3398 42.207 59.1758 42.207 57.8789V57.0703C42.207 55.7656 42.3828 54.6016 42.7344 53.5781C43.0859 52.5469 43.582 51.668 44.2227 50.9414C44.8711 50.2148 45.6367 49.6602 46.5195 49.2773C47.4102 48.8945 48.3906 48.7031 49.4609 48.7031C50.5391 48.7031 51.5195 48.8945 52.4023 49.2773C53.293 49.6602 54.0586 50.2148 54.6992 50.9414C55.3477 51.668 55.8477 52.5469 56.1992 53.5781C56.5586 54.6016 56.7383 55.7656 56.7383 57.0703ZM53.1875 57.8789V57.0469C53.1875 56.1406 53.1055 55.3438 52.9414 54.6562C52.7773 53.9688 52.5352 53.3906 52.2148 52.9219C51.8945 52.4531 51.5039 52.1016 51.043 51.8672C50.582 51.625 50.0547 51.5039 49.4609 51.5039C48.8672 51.5039 48.3398 51.625 47.8789 51.8672C47.4258 52.1016 47.0391 52.4531 46.7188 52.9219C46.4062 53.3906 46.168 53.9688 46.0039 54.6562C45.8398 55.3438 45.7578 56.1406 45.7578 57.0469V57.8789C45.7578 58.7773 45.8398 59.5742 46.0039 60.2695C46.168 60.957 46.4102 61.5391 46.7305 62.0156C47.0508 62.4844 47.4414 62.8398 47.9023 63.082C48.3633 63.3242 48.8906 63.4453 49.4844 63.4453C50.0781 63.4453 50.6055 63.3242 51.0664 63.082C51.5273 62.8398 51.9141 62.4844 52.2266 62.0156C52.5391 61.5391 52.7773 60.957 52.9414 60.2695C53.1055 59.5742 53.1875 58.7773 53.1875 57.8789ZM60.875 48.9375H63.8516L68.2344 61.4648L72.6172 48.9375H75.5938L69.4297 66H67.0391L60.875 48.9375ZM59.2695 48.9375H62.2344L62.7734 61.1484V66H59.2695V48.9375ZM74.2344 48.9375H77.2109V66H73.6953V61.1484L74.2344 48.9375ZM84.0312 48.9375V66H80.5273V48.9375H84.0312ZM97.2148 60.3398H100.719C100.648 61.4883 100.332 62.5078 99.7695 63.3984C99.2148 64.2891 98.4375 64.9844 97.4375 65.4844C96.4453 65.9844 95.25 66.2344 93.8516 66.2344C92.7578 66.2344 91.7773 66.0469 90.9102 65.6719C90.043 65.2891 89.3008 64.7422 88.6836 64.0312C88.0742 63.3203 87.6094 62.4609 87.2891 61.4531C86.9688 60.4453 86.8086 59.3164 86.8086 58.0664V56.8828C86.8086 55.6328 86.9727 54.5039 87.3008 53.4961C87.6367 52.4805 88.1133 51.6172 88.7305 50.9062C89.3555 50.1953 90.1016 49.6484 90.9688 49.2656C91.8359 48.8828 92.8047 48.6914 93.875 48.6914C95.2969 48.6914 96.4961 48.9492 97.4727 49.4648C98.457 49.9805 99.2188 50.6914 99.7578 51.5977C100.305 52.5039 100.633 53.5352 100.742 54.6914H97.2266C97.1875 54.0039 97.0508 53.4219 96.8164 52.9453C96.582 52.4609 96.2266 52.0977 95.75 51.8555C95.2812 51.6055 94.6562 51.4805 93.875 51.4805C93.2891 51.4805 92.7773 51.5898 92.3398 51.8086C91.9023 52.0273 91.5352 52.3594 91.2383 52.8047C90.9414 53.25 90.7188 53.8125 90.5703 54.4922C90.4297 55.1641 90.3594 55.9531 90.3594 56.8594V58.0664C90.3594 58.9492 90.4258 59.7266 90.5586 60.3984C90.6914 61.0625 90.8945 61.625 91.168 62.0859C91.4492 62.5391 91.8086 62.8828 92.2461 63.1172C92.6914 63.3438 93.2266 63.457 93.8516 63.457C94.5859 63.457 95.1914 63.3398 95.668 63.1055C96.1445 62.8711 96.5078 62.5234 96.7578 62.0625C97.0156 61.6016 97.168 61.0273 97.2148 60.3398Z" fill="black"/>
</svg>
