<?xml version="1.0" encoding="UTF-8" standalone="no"?>
<!-- Created with Inkscape (http://www.inkscape.org/) -->

<svg
   xmlns:dc="http://purl.org/dc/elements/1.1/"
   xmlns:cc="http://creativecommons.org/ns#"
   xmlns:rdf="http://www.w3.org/1999/02/22-rdf-syntax-ns#"
   xmlns:svg="http://www.w3.org/2000/svg"
   xmlns="http://www.w3.org/2000/svg"
   xmlns:sodipodi="http://sodipodi.sourceforge.net/DTD/sodipodi-0.dtd"
   xmlns:inkscape="http://www.inkscape.org/namespaces/inkscape"
   width="116.85352mm"
   height="127.09927mm"
   viewBox="0 0 414.04789 450.35176"
   id="svg5834"
   version="1.1"
   inkscape:version="0.91 r13725"
   sodipodi:docname="female vampire.svg">
  <defs
     id="defs5836" />
  <sodipodi:namedview
     id="base"
     pagecolor="#ffffff"
     bordercolor="#666666"
     borderopacity="1.0"
     inkscape:pageopacity="0.0"
     inkscape:pageshadow="2"
     inkscape:zoom="0.52710133"
     inkscape:cx="405.92495"
     inkscape:cy="349.05551"
     inkscape:document-units="px"
     inkscape:current-layer="layer1"
     showgrid="false"
     showguides="false"
     fit-margin-top="0"
     fit-margin-left="0"
     fit-margin-right="0"
     fit-margin-bottom="0"
     inkscape:window-width="1366"
     inkscape:window-height="705"
     inkscape:window-x="-8"
     inkscape:window-y="-8"
     inkscape:window-maximized="1" />
  <metadata
     id="metadata5839">
    <rdf:RDF>
      <cc:Work
         rdf:about="">
        <dc:format>image/svg+xml</dc:format>
        <dc:type
           rdf:resource="http://purl.org/dc/dcmitype/StillImage" />
        <dc:title></dc:title>
      </cc:Work>
    </rdf:RDF>
  </metadata>
  <g
     inkscape:label="Layer 1"
     inkscape:groupmode="layer"
     id="layer1"
     transform="translate(702.81537,51.030487)">
    <path
       style="fill:#000000"
       d="m -669.22656,-184.51367 c 0.29118,0.012 0.52968,0.0901 0.70312,0.20898 l -1.83594,0 c 0.0136,-0.006 0.015,-0.01 0.0293,-0.0156 0.36094,-0.14446 0.75612,-0.20766 1.10352,-0.19336 z"
       id="path6634"
       inkscape:connector-curvature="0" />
    <path
       style="fill:#000000"
       d="m -228.57227,-129.57617 c -0.0487,1.04588 -0.061,1.92984 0,2.50586 l 0,-2.50586 z"
       id="path6632"
       inkscape:connector-curvature="0" />
    <rect
       style="opacity:1;fill:#000000;fill-opacity:1;fill-rule:nonzero;stroke:none;stroke-width:1;stroke-miterlimit:4;stroke-dasharray:none;stroke-opacity:1"
       id="rect6641"
       width="414.04788"
       height="450.35175"
       x="-702.81537"
       y="-51.030487" />
    <path
       style="fill:#ffffff"
       d="m -679.33789,-51.167969 c -1.00892,3.41249 -1.78983,6.58101 -1.79883,7.839844 -0.016,2.31733 1.91278,-0.886009 3.03711,-5.042969 0.41333,-1.52821 0.5496,-1.989908 0.77344,-2.796875 z m 3.75,6.861328 c -0.76604,0.30396 -3.55469,6.120254 -3.55469,7.570313 0,0.60438 -0.41989,1.097656 -0.93164,1.097656 -0.51175,0 -1.13136,0.7875 -1.3789,1.75 -0.24762,0.9625 -0.28884,-0.275 -0.0918,-2.75 0.4212,-5.28954 -1.12306,-3.515875 -1.86914,2.146484 -0.26412,2.004582 -0.83153,4.211397 -1.25977,4.904297 -0.50563,0.81814 -0.37277,1.008292 0.37695,0.544922 0.635,-0.39244 1.1543,-0.236757 1.1543,0.345703 0,0.58246 -0.45033,1.058594 -1,1.058594 -0.54967,0 -1.01355,1.4625 -1.03125,3.25 -0.0177,1.7875 -0.1299,9.144567 -0.25,16.3476564 -0.16825,10.09106 0.10565,13.4891406 1.19922,14.8066406 1.2257,1.4766898 1.2257,1.6669732 0,1.4023438 -0.91395,-0.1973208 -1.32564,0.4054393 -1.1582,1.6933593 0.14301,1.1000009 0.30949,6.1624999 0.37109,11.2499999 0.0617,5.0875 0.3949,9.25004 0.74024,9.25 0.34534,-3e-5 0.59207,1.89888 0.54687,4.21875 -0.0452,2.31988 0.52192,7.105466 1.26172,10.634766 0.73981,3.52931 1.28714,6.91789 1.21484,7.53125 -0.31633,2.68544 0.16012,7.615234 0.73633,7.615234 0.34729,0 0.30908,-4.3875 -0.0859,-9.75 -0.39507,-5.3625 -0.79311,-12.45 -0.88281,-15.75 -0.0897,-3.3 -0.47241,-6.234634 -0.85156,-6.521484 -1.02236,-0.77348 -0.98681,-10.749166 0.0586,-16.478516 0.50176,-2.7499996 0.57313,-5.1287394 0.15821,-5.2871092 -0.41492,-0.1583602 -0.36616,-2.3706457 0.10937,-4.9160157 0.47552,-2.54536985 0.63872,-4.8534662 0.36328,-5.1289062 -0.27543,-0.27543 -0.5,0.024336 -0.5,0.6660156 0,0.64167 -0.43626,1.1660156 -0.96875,1.1660156 -1.15757,0 -0.5232,-7.5749425 0.96094,-11.4785161 0.87766,-2.30841 0.80072,-2.655405 -0.47461,-2.166015 -3.19009,1.22415 -1.31115,-7.480026 4.6875,-21.722656 1.59093,-3.77734 2.70443,-7.055327 2.47461,-7.285157 -0.0317,-0.03167 -0.0739,-0.03589 -0.125,-0.01563 z m -4.53516,105.888672 c -0.59329,0.02053 -0.73997,0.967123 -0.47265,2.964844 0.24403,1.82377 1.13462,9.164453 1.97851,16.314453 2.03966,17.2813 3.92249,27.386122 4.91602,26.392582 0.21665,-0.21665 -0.0327,-2.64301 -0.55274,-5.39258 -0.51997,-2.749577 -1.17148,-7.250002 -1.44726,-10.000002 -0.27578,-2.75 -1.0075,-9.275 -1.62695,-14.5 -0.6195,-5.225 -1.16881,-10.810312 -1.22071,-12.414062 -0.0519,-1.60374 -0.6322,-3.096377 -1.29101,-3.316407 -0.1031,-0.03443 -0.19841,-0.05173 -0.28321,-0.04883 z m 7.88282,47.779299 c -0.49599,0 -0.90365,0.5625 -0.9043,1.25 -0.002,2.0041 5.27659,22.80933 5.68359,22.40234 0.20319,-0.20319 0.0698,-2.90703 -0.29492,-6.00976 -0.36466,-3.10273 -1.0055,-5.64258 -1.42578,-5.64258 -0.42027,0 -1.07793,-2.7 -1.46094,-6 -0.38301,-3.3 -1.10165,-6 -1.59765,-6 z m 6.73046,26.17773 c -0.0914,-0.002 -0.17831,0.0357 -0.25781,0.11524 -0.50597,0.50596 2.0922,9.81313 3.35742,12.02539 1.26532,2.21242 1.08703,-0.52327 -0.32031,-4.89844 -0.87035,-2.70577 -1.78049,-5.54628 -2.02148,-6.3125 -0.18075,-0.57467 -0.48367,-0.92469 -0.75782,-0.92969 z m 5.50586,17.59766 c -0.089,0.0297 -0.13867,0.15752 -0.13867,0.40039 0,0.66914 6.84293,17.76348 7.60352,18.99414 1.30216,2.10693 1.16221,0.44198 -0.28906,-3.41992 -0.87843,-2.3375 -2.37548,-6.41733 -3.32618,-9.06836 -1.21243,-3.38089 -3.08746,-6.70384 -3.74804,-6.9043 -0.0382,-0.012 -0.0719,-0.0119 -0.10157,-0.002 z m 74.0918,3.25195 c -0.28586,0.006 -0.68304,0.0514 -1.20117,0.12695 -1.3056,0.19033 -2.55874,0.90821 -2.78516,1.59571 -0.59252,1.79918 2.26984,1.54133 3.83594,-0.34571 0.86735,-1.04509 1.00798,-1.39447 0.15039,-1.37695 z m -55.86719,34.32031 c -0.15157,-0.023 -0.25515,0.34222 -0.28515,1.07032 -0.0434,1.05416 0.19309,1.64479 0.52539,1.3125 0.33231,-0.33229 0.36899,-1.1961 0.0801,-1.91797 -0.11971,-0.29915 -0.22932,-0.45105 -0.32032,-0.46485 z m 1.29883,8.6211 c -0.20617,0.0473 -0.27422,0.62219 -0.16797,1.78125 0.17861,1.94851 4.61263,12.47722 5.06446,12.02539 0.15786,-0.15785 -0.68949,-3.31794 -1.88477,-7.02149 -1.43134,-4.43494 -2.55803,-6.88928 -3.01172,-6.78515 z m 6.73633,15.96289 c -0.30406,0.0407 -0.32866,0.7525 0.13867,2.31836 0.72746,2.43748 3.24277,6.75 3.9375,6.75 0.23599,0 -0.32098,-2.025 -1.23828,-4.5 -1.05144,-2.83691 -2.33112,-4.63616 -2.83789,-4.56836 z m 9.12891,17.31641 c -0.0525,-0.0189 -0.0956,-0.0118 -0.12891,0.0215 -0.26636,0.26635 0.29114,2.10951 1.23828,4.0957 2.23514,4.68713 2.85832,4.06396 0.81836,-0.81836 -0.75638,-1.81028 -1.56039,-3.1667 -1.92773,-3.29882 z m 5.19726,9.75976 c -0.42662,-0.004 -0.0574,1.38483 0.82227,3.08594 1.92688,3.72618 2.94863,3.37605 1.1914,-0.4082 -0.68174,-1.46817 -1.58705,-2.67374 -2.01367,-2.67774 z m 9.19141,15.99219 c -0.41956,0 -0.0766,1.37822 0.76367,3.0625 1.8394,3.68717 2.8998,3.30508 1.19727,-0.43164 -0.65889,-1.44608 -1.54138,-2.63086 -1.96094,-2.63086 z m 5.84375,10 c -0.92193,0 -0.81471,0.22807 2.93164,6.25 3.29552,5.29727 3.56512,4.65312 0.52344,-1.25 -1.41698,-2.75 -2.97174,-5 -3.45508,-5 z m 10.58789,15.62109 c -0.25245,-0.0734 0.62273,1.81856 2.62304,5.72656 1.35899,2.655 2.62098,4.37733 2.80469,3.82618 0.18372,-0.55114 -1.07296,-3.17849 -2.79297,-5.83789 -1.55946,-2.41118 -2.43841,-3.65775 -2.63476,-3.71485 z m -8.98438,6.72656 c -0.15157,-0.0229 -0.25515,0.34222 -0.28515,1.07032 -0.0434,1.05416 0.19309,1.64479 0.52539,1.3125 0.33231,-0.33229 0.36899,-1.1961 0.0801,-1.91797 -0.11971,-0.29915 -0.22932,-0.45105 -0.32032,-0.46485 z"
       id="path6630"
       inkscape:connector-curvature="0"
       sodipodi:nodetypes="ccscccssccsccsssssssccsscssssscssssssscccsssssssccscscssscssssccssssccccsscccccccscscsssssccsscscsssscssssscscscccccc" />
    <path
       style="fill:#ffffff"
       d="m -385.52344,-27.486328 c 2.75033,0.03355 5.72698,0.365345 9.74024,0.943359 12.76149,1.83798 19.52929,5.981457 24.34375,14.904297 5.29977,9.8223002 9.32797,31.103486 10.79101,57.021484 0.64168,11.36732 0.81799,13.129306 2.60352,25.978516 1.8633,13.40896 -0.40215,57.115332 -3.59375,69.337892 -0.83823,3.21009 -3.5851,10.63509 -6.10352,16.5 -10.20907,23.7749 -15.93424,46.81481 -18.92578,76.16211 -1.94934,19.12309 -11.74284,58.04969 -18.49219,73.5 -0.96105,2.2 -3.12104,7.15 -4.80078,11 -10.98839,25.18572 -22.93623,40.11865 -38.37304,47.96094 -6.32132,3.21139 -20.66999,7.38481 -31.3086,9.10546 -4.72031,0.7634 -21.78705,1.36043 -24,0.83985 -8.33863,-1.9616 -11.34002,-2.96621 -13.6543,-4.56836 -1.45989,-1.01068 -3.27336,-1.83789 -4.02929,-1.83789 -1.72376,0 -18.95786,-10.17694 -24.31641,-14.35938 -2.2,-1.71713 -4.45,-3.45858 -5,-3.87109 -11.96103,-8.97093 -28.8393,-25.32839 -35.8789,-34.76953 -9.75607,-13.08435 -20.22008,-31.76382 -27.16993,-48.5 -2.05553,-4.95 -5.42252,-12.825 -7.48047,-17.5 -5.71796,-12.98945 -9.90143,-25.5509 -9.28906,-27.89258 0.33415,-1.27781 0.0794,-2.10742 -0.64844,-2.10742 -0.65998,0 -1.0109,-0.5625 -0.77929,-1.25 0.2316,-0.6875 -0.12214,-1.7 -0.78711,-2.25 -1.8298,-1.51344 -12.78712,-39.64985 -15.3711,-53.5 -3.92983,-21.06397 -7.4745,-56.3664 -6.62109,-65.931642 1.17228,-13.139072 1.48561,-15.40035 3.12891,-22.56836 5.00678,-21.83945 11.63631,-35.658389 22.32812,-46.542969 8.45374,-8.60616 13.93551,-12.576658 23.83789,-17.267578 6.52116,-3.0891387 7.13305,-3.1870591 19.73047,-3.1308591 10.99354,0.04901 14.00323,0.4177004 19.5,2.3886721 9.71347,3.48295 16.18251,6.95019 15.38281,8.24414 -0.41542,0.67216 -0.23985,0.839752 0.43946,0.419922 1.83255,-1.13258 5.58879,1.42208 13.60937,9.25586 10.50068,10.25613 20.27342,23.602942 27.18946,37.132812 7.62163,14.91022 9.81785,20.0817 11.88867,28 2.93581,11.225852 3.61029,13.000002 4.93945,13.000002 1.4124,0 2.14704,-4.28488 3.0918,-18.000002 2.14819,-31.1852 12.34941,-65.024813 25.07617,-83.1835936 10.12001,-14.43941 26.31729,-25.6796054 43.38281,-30.1093754 7.07993,-1.837762 11.03526,-2.610612 15.61914,-2.554687 z"
       id="path6618"
       inkscape:connector-curvature="0" />
    <path
       style="fill:#000000"
       d="m -351.125,24.34375 c -1.00137,0.07667 -2.61018,1.020103 -4.06836,2.572266 -2.6485,2.8192 -15.19344,12.485546 -21.45117,16.529296 -9.02569,5.8324 -22.24642,13.625607 -25.92969,15.285157 -3.53363,1.59213 -7.26351,3.970577 -22.69336,14.460937 -2.54368,1.72938 -8.39368,6.882575 -13,11.453125 -19.1746,19.025669 -26.92148,31.910919 -27.03125,44.964849 -0.0335,3.98868 0.70771,10.62695 1.64649,14.75195 3.89335,17.10736 11.66953,43.37534 14.50195,48.98633 3.61671,7.16466 6.82164,8.59017 4.07617,1.8125 -2.16821,-5.35257 -9.18323,-28.16482 -11.93164,-38.79883 -4.67643,-18.09376 -4.71605,-19.32111 -1.03125,-31.70117 1.76772,-5.93914 3.42239,-12.59883 3.67578,-14.79883 0.39428,-3.4232 1.56073,-5.05761 8.08985,-11.343752 8.55582,-8.23744 17.3998,-14.627117 47.10937,-34.029297 11.26461,-7.35648 23.86461,-16.11458 28,-19.46289 8.88387,-7.19302 21.01953,-18.641045 21.01953,-19.828125 0,-0.633634 -0.3816,-0.899518 -0.98242,-0.853516 z"
       id="path6608"
       inkscape:connector-curvature="0" />
    <path
       style="fill:#000000"
       d="m -347.64648,58.128906 c -0.59015,0.07768 -1.75,0.914319 -3.7461,2.632813 -9.22276,7.94013 -13.98098,11.599609 -15.08008,11.599609 -0.63249,0 0.11335,-1.168949 1.65625,-2.599609 1.54289,-1.43065 2.59878,-2.807474 2.34766,-3.058594 -0.4533,-0.4533 -10.71607,5.45331 -11.67383,6.71875 -0.81704,1.07951 -6.79631,3.941881 -8.20117,3.925781 -0.71481,-0.0082 0.50117,-1.56672 2.70117,-3.46289 5.15203,-4.44052 3.55035,-4.451814 -3.78711,-0.02734 -3.18302,1.91936 -7.23302,3.737685 -9,4.041016 -12.21415,2.096799 -31.47948,9.765046 -41.21289,16.404296 -4.66322,3.18082 -1.98181,2.423816 4.83789,-1.365234 9.81994,-5.45599 26.98178,-11.588547 28.41602,-10.154297 0.30393,0.30393 -1.20461,1.272274 -3.35156,2.152344 -3.93725,1.61394 -19.87784,9.353801 -26.3125,12.775391 -8.08685,4.300138 -26.08985,27.434098 -26.08985,33.525388 0,1.1695 0.45,2.125 1,2.125 0.55,0 1,-0.71531 1,-1.5918 0,-0.87649 0.85798,-1.81963 1.90625,-2.09375 1.19487,-0.31247 2.13569,-1.72081 2.52149,-3.77734 0.62331,-3.32248 11.28283,-16.81991 15.76172,-19.95703 2.2522,-1.57752 2.30729,-1.52704 4.0625,3.63671 3.86313,11.36515 16.91359,15.36687 24.51953,7.51954 6.2787,-6.47798 7.25485,-16.14898 2.30664,-22.841797 l -2.1543,-2.914062 2.59766,-0.988281 c 5.13201,-1.95118 10.69136,-2.23776 18.26953,-0.94336 4.23982,0.72419 8.3025,1.910036 9.02929,2.634766 1.93957,1.9341 7.31954,1.608989 13.89258,-0.837891 5.76022,-2.14429 10.65478,-4.810065 10.01172,-5.453125 -0.18559,-0.18559 -2.04185,0.133805 -4.125,0.708985 -5.65358,1.56103 -5.34792,0.500479 0.70899,-2.462891 2.95593,-1.4462 6.19751,-3.540957 7.20507,-4.654297 1.77947,-1.96627 1.77831,-2.013475 -0.0898,-1.697265 -1.05777,0.17904 -3.38633,1.098751 -5.17383,2.044921 -3.67355,1.9445 -4.44505,0.701392 -1,-1.611328 1.2375,-0.83075 3.2625,-2.475377 4.5,-3.654297 2.66411,-2.53802 3.11292,-5.117007 0.5,-2.873046 -0.9625,0.826577 -2.425,1.863394 -3.25,2.302734 -1.21893,0.64913 -1.26578,0.545542 -0.25,-0.548828 2.6825,-2.89003 0.99388,-2.693896 -4.75,0.552734 -3.3,1.86527 -6,3.223418 -6,3.017578 0,-0.20583 3.6,-3.982691 8,-8.394531 4.4,-4.41185 8,-8.777502 8,-9.701172 0,-0.473261 -0.14982,-0.700906 -0.5039,-0.654297 z"
       id="path6600"
       inkscape:connector-curvature="0" />
    <path
       style="fill:#000000"
       d="m -625.40625,67.648438 c -0.82242,0.02564 -0.9073,0.804403 0.24219,2.189453 2.35923,2.84269 13.71471,10.414433 19.63086,13.089843 3.23936,1.46491 11.74062,4.362767 18.89062,6.441407 40.31858,11.721339 40.25588,11.703319 48.5,15.240239 3.93115,1.68652 23.9053,11.6159 32.5,16.15624 3.73214,1.9716 5.5,2.02307 5.5,0.16016 0,-2.54343 -29.38509,-20.61632 -40.12109,-24.67578 -15.49473,-5.85882 -18.73996,-6.768369 -37.34961,-10.480469 -16.68368,-3.32793 -36.74062,-10.832137 -44.76758,-16.748047 -1.30026,-0.958295 -2.38573,-1.39299 -3.02539,-1.373046 z"
       id="path6596"
       inkscape:connector-curvature="0" />
    <path
       style="fill:#000000"
       d="m -376.12891,99.412109 c -1.17768,-0.0476 -2.72437,0.345089 -4.19921,1.199221 -1.18719,0.6875 -3.54074,2.825 -5.22852,4.75 -7.64082,8.71477 -16.3931,15.824 -22.25977,18.07812 -1.55411,0.59713 -8.67617,1.70103 -15.82617,2.45313 -14.21978,1.49576 -17.00022,1.96229 -20,3.35742 -1.1,0.51159 -2.7875,1.18262 -3.75,1.49023 -0.9625,0.30761 -1.75,1.07563 -1.75,1.70704 0,0.72657 0.82598,0.89783 2.25,0.46484 6.12593,-1.86267 9.91384,-2.52998 17.25,-3.0332 4.4,-0.30182 11.69278,-0.80529 16.20703,-1.11914 5.39908,-0.37536 9.50542,-1.26064 12,-2.58789 2.08575,-1.10977 6.26797,-2.82962 9.29297,-3.82227 3.025,-0.99264 4.6415,-1.84623 3.59375,-1.89649 -1.79405,-0.0859 -1.80527,-0.20003 -0.21875,-1.95312 0.92655,-1.02382 3.4706,-2.66567 5.6543,-3.65039 2.1837,-0.98471 3.9707,-2.19834 3.9707,-2.69727 0,-0.49893 -0.51932,-0.58775 -1.1543,-0.19531 -0.69316,0.42841 -0.88508,0.27698 -0.47851,-0.38086 0.37244,-0.60262 2.7316,-2.12115 5.24219,-3.375 2.51058,-1.25385 4.05108,-2.45109 3.42382,-2.66015 -0.70417,-0.23473 -0.44929,-0.9038 0.66407,-1.74805 1.69589,-1.28597 1.66906,-1.36854 -0.44727,-1.39844 -1.3192,-0.0186 -2.25,-0.65373 -2.25,-1.5332 0,-0.913742 -0.80864,-1.401623 -1.98633,-1.449221 z"
       id="path6594"
       inkscape:connector-curvature="0" />
    <path
       style="fill:#000000"
       d="m -608.91797,107.04883 c -0.14537,0.0258 -0.22461,0.11096 -0.22461,0.25976 0,1.39096 6.12635,6.98494 7.69141,7.02344 0.65504,0.0161 1.49867,0.5278 1.875,1.13672 0.97017,1.56978 -2.65167,0.33098 -10.96485,-3.75391 -3.79381,-1.86419 -7.09405,-3.19305 -7.33398,-2.95312 -0.40087,0.40086 2.58721,3.34047 7.32227,7.20508 2.02828,1.65543 2.16503,1.66353 -3.33985,-0.19532 -0.9625,-0.32501 -0.175,0.78745 1.75,2.47266 1.925,1.68522 4.0625,3.077 4.75,3.0918 0.6875,0.0148 1.25,0.52843 1.25,1.14258 0,0.62408 -0.8827,0.88593 -2,0.59375 -3.15418,-0.82483 -3.34635,1.03981 -0.2793,2.70312 1.96916,1.0679 2.26903,1.51848 1.0293,1.54688 -2.89847,0.0663 -2.00386,1.40162 2.94141,4.38867 4.19687,2.535 5.26866,2.76154 10.16015,2.15039 3.25837,-0.4071 4.95872,-0.99833 4.20704,-1.46289 -0.84087,-0.51969 -0.31072,-0.96596 1.58984,-1.33789 1.56822,-0.3069 6.67656,-1.73443 11.35156,-3.17383 10.63101,-3.27321 18.07773,-4.39729 16.25,-2.45313 -2.05356,2.18438 -1.53004,10.95514 0.89063,14.92774 2.52944,4.15112 5.00106,6.08492 9.81054,7.67187 7.30754,2.41121 14.73229,-1.02755 18.8418,-8.72656 1.21333,-2.27314 2.20703,-5.69249 2.20703,-7.59766 l 0,-3.46289 5.92383,4.5586 c 3.25823,2.50715 6.26091,4.55664 6.67187,4.55664 0.41098,0 1.57998,0.75475 2.59766,1.67578 1.01768,0.92099 2.85251,1.75216 4.07813,1.84766 1.22563,0.0955 3.01601,0.51628 3.97851,0.93359 1.17981,0.51153 1.74874,0.31524 1.74805,-0.59961 -5.6e-4,-0.74635 -2.36306,-2.68322 -5.25,-4.30469 -2.88694,-1.62147 -5.92305,-3.73153 -6.74805,-4.68945 -2.29871,-2.66906 -15.57993,-9.08425 -22.92969,-11.07617 l -6.57031,-1.78125 5.5,0.52539 c 12.40436,1.1842 20.65637,2.38685 23.31446,3.39844 1.5483,0.58925 3.5733,1.05771 4.5,1.04101 3.1339,-0.0566 -0.8888,-1.69311 -9.33204,-3.79687 -11.90668,-2.96673 -24.96898,-4.50184 -32.09765,-3.77149 -4.55945,0.46713 -7.31636,0.23556 -9.85742,-0.82617 -3.8203,-1.59622 -4.56147,-1.12923 -1.77735,1.11719 1.59567,1.2875 1.52954,1.35291 -0.75,0.7539 -1.375,-0.36132 -5.17784,-1.71958 -8.45117,-3.01757 -6.20888,-2.46209 -8.26873,-2.44186 -4.97656,0.0488 3.4729,2.62741 0.2212,1.59176 -6.35938,-2.02539 -3.54905,-1.9508 -6.66105,-3.337 -6.91601,-3.08203 -0.57974,0.57974 3.39768,4.62891 4.54687,4.62891 0.46476,0 1.70226,0.96167 2.75,2.13476 1.89666,2.12357 1.89532,2.12953 -0.59375,1.36719 -4.19697,-1.28544 -17.10017,-7.43739 -20.13672,-9.59961 -1.18083,-0.84083 -2.20256,-1.29237 -2.63867,-1.21484 z"
       id="path6592"
       inkscape:connector-curvature="0" />
    <path
       style="fill:#ffffff"
       d="m -410.80859,108.84766 c -0.56986,-0.0171 -0.089,0.9751 1.41601,3.04492 1.9737,2.71432 3.25,3.13967 3.25,1.08398 0,-0.76174 -1.125,-2.12055 -2.5,-3.02148 -1.10371,-0.72319 -1.8241,-1.09722 -2.16601,-1.10742 z m -131.59375,28.66211 c -0.43367,-0.0275 -0.74024,0.29766 -0.74024,1.06835 0,1.49215 1.9186,3.78321 3.16797,3.78321 0.42224,0 0.40043,-0.9881 -0.0469,-2.19727 -0.58501,-1.58143 -1.65809,-2.60859 -2.38086,-2.65429 z"
       id="path6590"
       inkscape:connector-curvature="0" />
    <path
       style="fill:#000000"
       d="m -370.64258,115.36133 c -0.825,0 -1.5,0.45 -1.5,1 0,0.55 0.675,1 1.5,1 0.825,0 1.5,-0.45 1.5,-1 0,-0.55 -0.675,-1 -1.5,-1 z"
       id="path6586"
       inkscape:connector-curvature="0" />
    <path
       style="fill:#000000"
       d="m -375.04883,117.39453 c -1.21206,0.0253 -1.0264,0.50546 0.76758,2 l 0,0.002 c 3.07914,2.56515 4.96867,2.53947 2.63867,-0.0352 -0.99549,-1.1 -2.52899,-1.9851 -3.40625,-1.9668 z"
       id="path6584"
       inkscape:connector-curvature="0" />
    <path
       style="fill:#000000"
       d="m -376.91992,120.36133 c -2.17612,0 -2.30679,0.19442 -1.10352,1.64453 1.21897,1.46877 1.10871,1.56335 -1.02929,0.88476 -2.00513,-0.63638 -2.28555,-0.47972 -1.73047,0.9668 0.55145,1.43705 0.24245,1.62225 -1.84766,1.09766 -3.12103,-0.78333 -3.29144,0.69534 -0.26172,2.27344 2.18151,1.13629 2.16629,1.15991 -0.5,0.79101 -3.49594,-0.48371 -3.49541,0.39129 0.002,2.50195 3.59259,2.16817 6.37365,2.33193 5.60546,0.33008 -0.43185,-1.1254 -0.12406,-1.33621 1.20508,-0.82617 1.3843,0.53121 1.64066,0.30772 1.14258,-0.99023 -0.35516,-0.92555 -0.16125,-1.67383 0.43359,-1.67383 0.5916,0 0.81659,-0.675 0.5,-1.5 -0.40029,-1.04314 0.0701,-1.5 1.54688,-1.5 2.06026,0 2.07044,-0.0596 0.31445,-2 -0.99549,-1.1 -2.92024,-2 -4.27734,-2 z"
       id="path6582"
       inkscape:connector-curvature="0" />
    <path
       style="fill:#000000"
       d="m -389.60156,129.76367 c -0.33139,-0.0151 -0.54102,0.18148 -0.54102,0.57031 0,0.59972 0.675,1.34944 1.5,1.66602 0.825,0.31659 1.5,0.99341 1.5,1.50391 0,0.51083 -0.9381,0.4268 -2.08594,-0.1875 -2.44987,-1.31113 -4.03377,-0.31797 -1.88476,1.18164 1.08511,0.7572 0.70227,0.85769 -1.45508,0.38281 -2.67097,-0.58793 -2.80172,-0.49656 -1.50781,1.0625 1.27905,1.54116 1.19995,1.63854 -0.82422,0.99609 -4.64916,-1.47559 -1.4181,2.26972 4.25781,4.93555 3.82593,1.79692 4.5,1.80822 4.5,0.0801 0,-0.91748 0.6992,-1.22266 2.01367,-0.87891 1.61195,0.42153 1.87794,0.16989 1.33008,-1.25781 -0.46973,-1.22409 -0.31617,-1.55652 0.48633,-1.06055 0.70216,0.43396 1.16992,0.0997 1.16992,-0.83593 0,-0.85746 0.675,-1.56055 1.5,-1.56055 2.6525,0 1.60328,-1.72207 -2.12695,-3.49219 -1.99475,-0.94657 -4.13225,-1.79848 -4.75,-1.89258 -0.61775,-0.0941 -1.68555,-0.52167 -2.37305,-0.95117 -0.26744,-0.16708 -0.51015,-0.25262 -0.70898,-0.26172 z"
       id="path6580"
       inkscape:connector-curvature="0" />
    <path
       style="fill:#000000"
       d="m -452.95703,137.86523 c -0.72309,0.0413 -1.18555,0.21115 -1.18555,0.48829 0,1.53693 4.32208,4.00781 7.00977,4.00781 1.41133,0 4.30314,0.88656 6.42578,1.96875 2.12264,1.08218 4.22794,1.74087 4.67773,1.46289 0.44979,-0.27799 2.57776,0.39105 4.72852,1.48828 2.15076,1.09724 4.14947,1.75683 4.4414,1.46484 0.29199,-0.29199 1.93508,0.19596 3.65235,1.08399 1.71726,0.88803 3.50784,1.37683 3.97851,1.08594 0.88864,-0.54921 5.97752,0.83686 9.76954,2.6621 1.20136,0.57823 3.06537,0.82221 4.14062,0.54102 1.07526,-0.28118 2.56607,-0.12456 3.31445,0.34961 2.13682,1.35385 3.86133,1.04256 3.86133,-0.69922 0,-0.87649 0.9,-1.82953 2,-2.11719 1.1,-0.28766 2,-1.13141 2,-1.875 0,-0.79088 0.62249,-1.11407 1.5,-0.77734 0.9422,0.36156 1.5,-0.0103 1.5,-1 0,-0.9897 0.5578,-1.36155 1.5,-1 0.94682,0.36333 1.5,-0.0112 1.5,-1.01758 0,-0.97165 -2.73417,-2.97285 -7,-5.12109 -3.85,-1.93883 -7,-3.08444 -7,-2.54688 0,0.53757 0.9,1.45818 2,2.04688 1.1,0.5887 2,1.51773 2,2.0625 0,0.54478 -1.35,0.29075 -3,-0.5625 -1.7084,-0.88345 -3,-1.10948 -3,-0.52539 0,0.56412 0.52435,1.02539 1.16602,1.02539 0.64169,0 0.88616,0.28182 0.54297,0.625 -0.34318,0.34318 -2.24948,-0.33554 -4.23633,-1.50781 l -3.61328,-2.13086 0.66015,2.08007 c 0.63972,2.01559 0.56789,2.03167 -2.3789,0.50782 -3.52101,-1.82078 -4.50804,-1.97771 -3.64063,-0.57422 0.97772,1.58198 -1.12036,1.16236 -2.5,-0.5 -0.68469,-0.825 -1.97792,-1.49714 -2.87304,-1.49414 -1.13385,0.003 -0.71692,0.75173 1.37304,2.46484 1.65,1.35249 2.73035,2.47434 2.40235,2.49414 -1.06578,0.0643 -6.84622,-3.06431 -7.44141,-4.02734 -0.31839,-0.51518 -1.27739,-0.9375 -2.13086,-0.9375 -1.12812,0 -0.90768,0.53699 0.80859,1.96679 3.21832,2.68113 0.81844,2.57494 -2.60156,-0.11523 -2.13688,-1.68088 -2.9105,-1.86589 -3.54101,-0.8457 -0.63707,1.0308 -1.56031,0.85927 -4.4004,-0.81641 -3.06152,-1.80634 -3.5957,-1.88608 -3.5957,-0.5332 0,1.15586 -0.34057,1.30708 -1.25,0.55469 -0.6875,-0.56878 -2.375,-1.02558 -3.75,-1.01758 -1.375,0.008 -3.9625,-0.23538 -5.75,-0.54102 -0.44687,-0.0764 -0.87324,-0.12555 -1.26172,-0.14648 -0.29135,-0.0157 -0.5617,-0.0157 -0.80273,-0.002 z"
       id="path6574"
       inkscape:connector-curvature="0" />
    <path
       style="fill:#000000"
       d="m -585.49023,138.47461 c -0.81952,-0.0554 -1.3437,0.17768 -1.84766,0.68164 -1.00788,1.00792 -1.00189,1.66052 0.0273,3.30859 1.1244,1.80044 1.0285,2.12008 -0.77539,2.5918 -2.97545,0.7781 -2.52617,2.29856 0.69336,2.34766 2.74508,0.0418 2.74373,0.0452 -0.75,1.91992 l -3.5,1.8789 6.5,-0.50585 c 3.575,-0.27791 6.725,-0.52077 7,-0.53907 2.93636,-0.19487 3.30252,0.39983 1.22852,1.9961 -2.21208,1.70256 -2.07227,1.73826 5.35351,1.36328 7.24031,-0.36562 7.59407,-0.28472 6.99414,1.60547 -0.59039,1.86018 -0.34314,1.93799 3.78907,1.16601 2.43216,-0.45438 8.1835,-0.84097 12.77929,-0.85937 12.0277,-0.0481 35.26168,-5.68072 37.34571,-9.05274 0.34506,-0.55833 0.10602,-1.01562 -0.53125,-1.01562 -1.07442,0 -17.93249,4.36637 -22.45899,5.8164 -1.1,0.35238 -6.05,0.59562 -11,0.54102 -6.88285,-0.076 -10.05858,-0.59178 -13.5,-2.19336 -5.13869,-2.39147 -17.48146,-7.59612 -23.71875,-10 -1.69293,-0.65246 -2.80939,-0.99538 -3.6289,-1.05078 z"
       id="path6572"
       inkscape:connector-curvature="0" />
    <path
       style="fill:#000000"
       d="m -439.83984,141.80273 c 0.40481,-0.0469 1.31768,0.58729 2.1914,1.55274 2.12638,2.34962 1.78221,2.53013 -0.92187,0.48437 -1.05985,-0.80183 -1.69421,-1.68859 -1.41016,-1.97265 0.0355,-0.0355 0.0828,-0.0578 0.14063,-0.0645 z"
       id="path6570"
       inkscape:connector-curvature="0" />
    <path
       style="fill:#000000"
       d="m -396.26172,143.36133 c 0.55,0 1.27922,0.45 1.61914,1 0.33992,0.55 0.16719,1 -0.38281,1 -0.55,0 -1.27727,-0.45 -1.61719,-1 -0.33992,-0.55 -0.16914,-1 0.38086,-1 z"
       id="path6568"
       inkscape:connector-curvature="0" />
    <path
       style="fill:#000000"
       d="m -447.97266,148.51562 c -0.10606,0.007 -0.20233,0.0238 -0.2832,0.0508 -0.64697,0.21566 2.1519,2.35134 6.21875,4.74609 4.06685,2.39476 9.07234,5.40988 11.12305,6.70117 2.05071,1.29129 4.38351,2.34766 5.18554,2.34766 0.80203,0 4.41614,2.025 8.03125,4.5 7.15373,4.89764 8.86285,5.60298 6.05469,2.5 -3.11127,-3.43791 -0.89328,-2.21612 7.19531,3.96094 8.79505,6.71655 13.18847,8.12231 6.30469,2.01757 -5.04625,-4.47516 -18.37687,-13.9658 -19.66406,-14 -0.46011,-0.0122 -1.93431,-0.86571 -3.27539,-1.89648 -1.34107,-1.03076 -3.01878,-1.65127 -3.72852,-1.37891 -0.70975,0.27235 -3.55623,-0.89915 -6.32617,-2.60351 -5.71748,-3.518 -6.84796,-3.84071 -4.8789,-1.39258 1.30088,1.6174 -1.23848,0.32802 -8.84571,-4.49024 -1.06738,-0.67606 -2.36886,-1.10918 -3.11133,-1.0625 z"
       id="path6566"
       inkscape:connector-curvature="0" />
    <path
       style="fill:#000000"
       d="m -505.79883,148.85352 c -1.26849,0.0988 -4.24371,2.11689 -7.74219,5.37695 -2.26951,2.11485 -3.63996,2.89992 -3.28125,1.88086 0.81579,-2.31762 -0.58075,-2.22419 -2.75976,0.18359 -0.96192,1.06291 -2.32059,1.71352 -3.01953,1.44531 -0.69894,-0.26821 -2.45687,0.92204 -3.90625,2.64454 -2.01999,2.40061 -2.63477,2.71572 -2.63477,1.35156 0,-1.36812 -0.87776,-0.92279 -3.79297,1.92383 -2.08569,2.03662 -4.19991,3.70117 -4.69922,3.70117 -0.49931,0 -0.36898,-0.53922 0.29102,-1.19922 0.66,-0.66 1.20117,-1.65447 1.20117,-2.20899 0,-0.55451 -1.93074,0.88667 -4.28906,3.20118 -4.30475,4.22477 -7.59976,5.95164 -4.21094,2.20703 2.92788,-3.23527 0.39195,-2.28723 -3.20312,1.19726 -1.81369,1.75789 -3.29688,2.74711 -3.29688,2.19922 0,-0.54789 0.53922,-1.53531 1.19922,-2.19531 0.8338,-0.83383 0.85996,-1.20117 0.084,-1.20117 -0.61414,0 -1.26587,0.35474 -1.44921,0.78711 -0.42485,1.00195 -6.39873,5.21289 -7.39453,5.21289 -0.41285,0 0.0651,-0.9 1.06054,-2 0.99549,-1.1 1.34525,-2 0.77735,-2 -0.5679,0 -1.59266,0.675 -2.27735,1.5 -1.44558,1.74182 -1.96285,1.81078 -3.99609,0.52539 -1.2843,-0.81192 -1.2138,-1.17388 0.5,-2.56641 2.06412,-1.67718 1.49957,-1.63819 -3.25391,0.22852 -1.54192,0.60552 -1.58536,0.48529 -0.35937,-1.02149 1.23002,-1.51172 1.18195,-1.63003 -0.41407,-1.01757 -1.24237,0.47674 -1.57957,0.32652 -1.08203,-0.47852 1.00559,-1.62708 -0.62544,-1.46174 -2.95312,0.29883 -3.1608,2.39071 -3.97852,1.73695 -1.36524,-1.0918 l 2.42383,-2.625 -2.49219,0.76953 c -2.23126,0.68801 -2.3487,0.59516 -1.12695,-0.87695 0.75053,-0.90434 0.97204,-1.64263 0.49219,-1.64063 -1.36692,0.006 -7.3772,3.88006 -7.3418,4.73243 0.0649,1.56143 2.69441,4.2088 3.47656,3.5 0.44575,-0.40395 0.52702,0.0512 0.18165,1.01367 -0.41527,1.15732 -0.12944,1.75 0.84179,1.75 0.80774,0 1.46875,0.47809 1.46875,1.06055 0,0.58246 0.45,0.77937 1,0.43945 0.55,-0.33992 1,-0.14106 1,0.4414 0,0.58246 0.70114,1.0586 1.5586,1.0586 0.85748,0 1.28132,0.45 0.9414,1 -0.33992,0.55 -0.14105,1 0.44141,1 0.58246,0 1.06622,0.7875 1.07422,1.75 0.009,0.98823 0.33512,1.3147 0.75,0.75 0.40408,-0.55 1.85937,-1.88725 3.23437,-2.97266 1.375,-1.0854 1.9375,-1.33368 1.25,-0.55078 -1.3382,1.52391 -1.68162,5.25979 -0.58398,6.35742 1.05118,1.05118 1.70459,0.85203 7.69336,-2.34375 3.10242,-1.65555 5.64062,-2.73526 5.64062,-2.40039 0,0.33488 1.6002,-0.33591 3.55664,-1.49023 1.95644,-1.15433 4.04272,-2.09961 4.63672,-2.09961 0.59401,0 4.19717,-2.05137 8.00586,-4.56055 3.80869,-2.50918 8.9671,-5.43799 11.46289,-6.50781 4.49801,-1.92808 17.33789,-13.68315 17.33789,-15.87305 0,-0.4186 -0.23342,-0.59934 -0.65625,-0.5664 z"
       id="path6564"
       inkscape:connector-curvature="0" />
    <path
       style="fill:#000000"
       d="m -499.69141,153.41797 c -0.56261,-0.12735 -1.47557,1.12119 -2.33789,3.50586 -1.58109,4.37243 -5.3036,10.33908 -6.48632,10.39648 -0.47986,0.0233 -0.30315,-0.64412 0.39257,-1.48242 0.69577,-0.83829 1.04862,-1.74045 0.78321,-2.00586 -0.26541,-0.26542 -2.91712,3.10456 -5.89258,7.49024 -5.14894,7.58926 -8.23296,10.62088 -5.88867,5.78906 1.04475,-2.15334 1.00156,-2.14521 -1.01172,0.16992 -1.15701,1.33049 -4.52209,5.15549 -7.47657,8.5 -5.94254,6.72709 -12.5332,15.15273 -12.5332,16.02148 0,2.58671 8.28263,-6.38842 15.19727,-16.46679 0.93365,-1.36087 1.7211,-1.93825 1.75,-1.28321 0.0288,0.65504 -0.39727,1.46868 -0.94727,1.8086 -0.55,0.33992 -1,1.34569 -1,2.23437 0,0.88867 2.06922,-1.04995 4.59961,-4.30859 2.53038,-3.25863 4.89288,-5.93707 5.25,-5.95117 2.61522,-0.10328 16.15039,-19.0855 16.15039,-22.65039 0,-1.11911 -0.21126,-1.69117 -0.54883,-1.76758 z"
       id="path6560"
       inkscape:connector-curvature="0" />
    <path
       style="fill:#000000"
       d="m -583.09375,158.41602 c -0.4326,0.0398 -1.0333,0.28514 -1.76172,0.74804 -1.56704,0.99584 -0.49153,5.19727 1.33008,5.19727 0.76085,0 1.38281,0.45 1.38281,1 0,1.68684 2.58914,1.11148 4.5,-1 1.67555,-1.85143 1.6824,-2 0.0957,-2 -1.03343,0 -1.43285,-0.45364 -1.00585,-1.14453 0.49756,-0.80509 -0.0715,-0.95074 -1.91407,-0.48828 -2.08386,0.52303 -2.50413,0.34822 -2.04297,-0.85352 0.39172,-1.02081 0.13702,-1.52528 -0.58398,-1.45898 z"
       id="path6556"
       inkscape:connector-curvature="0" />
    <path
       style="fill:#000000"
       d="m -558.45312,169.36133 c -0.20912,0 -1.19397,0.9 -2.18946,2 -0.99549,1.1 -1.30729,2 -0.6914,2 0.61589,0 1.6027,-0.9 2.1914,-2 0.5887,-1.1 0.89854,-2 0.68946,-2 z"
       id="path6552"
       inkscape:connector-curvature="0" />
    <path
       style="fill:#000000"
       d="m -346.25586,176.05078 c 0.0732,0.029 0.11328,0.15712 0.11328,0.39844 0,2.35522 -8.77493,37.35373 -14.02734,55.94726 -5.08628,18.00546 -5.2919,16.10738 -0.97852,-9.06054 3.30129,-19.26251 4.32362,-23.32528 7.54688,-29.97461 1.19976,-2.475 2.9747,-6.975 3.94336,-10 1.20549,-3.76459 2.77302,-7.10579 3.31836,-7.30664 0.0315,-0.0116 0.0596,-0.0136 0.084,-0.004 z"
       id="path6550"
       inkscape:connector-curvature="0" />
    <path
       style="fill:#000000"
       d="m -435.55469,188.36133 c -0.58773,0 3.42736,4.14072 8.92188,9.20117 14.34039,13.2075 22.01278,21.44429 26.35937,28.29883 2.0926,3.3 5.67721,8.95696 7.9668,12.57031 2.28958,3.61334 4.16406,6.93608 4.16406,7.38281 0,0.44674 0.93896,2.3297 2.08594,4.18555 2.09678,3.39266 4.30098,3.78324 3.27539,0.58008 -0.30253,-0.94488 -1.00268,-3.06875 -1.55664,-4.71875 -4.42116,-13.16888 -8.3745,-19.80103 -17.14258,-28.75195 -16.22254,-16.56084 -30.66836,-28.74805 -34.07422,-28.74805 z"
       id="path6548"
       inkscape:connector-curvature="0" />
    <path
       style="fill:#000000"
       d="m -483.40625,199.64648 c -1.08221,0.0383 -1.70723,0.34775 -1.50781,0.99219 0.40284,1.30181 9.27197,5.93852 14.27148,7.46094 1.65,0.50244 3.17671,0.77699 3.39258,0.61133 0.7537,-0.5784 -2.39434,-3.63962 -6.23242,-6.0625 -2.94312,-1.85791 -7.54296,-3.08627 -9.92383,-3.00196 z"
       id="path6538"
       inkscape:connector-curvature="0" />
    <path
       style="fill:#000000"
       d="m -502.48828,199.75586 c -0.29557,0.007 -0.82732,0.3593 -1.5957,1.05469 -2.82382,2.55552 -9.08166,15.04324 -15.49805,30.93359 -3.08313,7.63544 -6.96411,16.97948 -8.625,20.76367 -3.78606,8.62619 -9.10817,25.76637 -8.37109,26.95899 0.30434,0.49246 0.72747,0.89453 0.9414,0.89453 0.7092,0 15.33764,-30.41779 16.83203,-35 0.80718,-2.475 2.19846,-7.50176 3.0918,-11.17188 2.50013,-10.27132 5.06013,-17.06156 9.50195,-25.20312 3.3675,-6.17234 4.60938,-9.2509 3.72266,-9.23047 z"
       id="path6536"
       inkscape:connector-curvature="0" />
    <path
       style="fill:#000000"
       d="m -428.08398,202.47852 c -0.63203,-0.0289 -1.0586,1.3902 -1.0586,4.14843 0,3.72651 -0.55531,4.80274 -4.39453,8.52344 -3.81375,3.696 -9.60547,13.45643 -9.60547,16.1875 0,2.01609 -6.82344,5.8849 -12.38086,7.01953 -5.46108,1.11497 -6.06709,1.05025 -8.5,-0.89844 -8.48599,-6.79703 -13.02777,-8.97463 -21.91211,-10.50781 -4.93227,-0.85117 -10.13143,-1.98893 -11.55273,-2.52929 -1.4213,-0.54037 -2.81103,-0.61593 -3.08789,-0.16797 -1.18152,1.91175 2.44066,4.30548 8.96875,5.92773 5.29798,1.31658 9.56163,3.42531 17.48633,8.6543 5.76353,3.80298 10.74814,7.30762 11.07812,7.78711 0.32998,0.47948 2.35498,1.52101 4.5,2.31445 8.87677,3.28349 19.70681,-1.44684 24.43945,-10.67383 1.97209,-3.84489 4.96094,-15.50259 4.96094,-19.35351 0,-1.28081 0.85506,-4.2394 1.90039,-6.57422 1.48568,-3.31838 1.68281,-4.87055 0.90235,-7.10938 -0.6369,-1.827 -1.25257,-2.72555 -1.74414,-2.74804 z"
       id="path6534"
       inkscape:connector-curvature="0" />
    <path
       style="fill:#000000"
       d="m -611.08984,210.30078 c -0.90563,-0.1846 1.55192,5.20612 6.91601,14.06055 3.16535,5.225 7.1057,11.975 8.75781,15 8.68702,15.90588 16.37748,30.33458 19.81836,37.18359 2.1231,4.22598 4.22028,7.46128 4.66016,7.18946 0.43983,-0.27187 0.41589,-1.25448 -0.0527,-2.1836 -0.46862,-0.92912 -3.03764,-6.41445 -5.71094,-12.18945 -7.38872,-15.96147 -18.3562,-37.02173 -21.61133,-41.5 -1.59911,-2.2 -4.93764,-7.0375 -7.41797,-10.75 -3.06186,-4.58293 -4.816,-6.69979 -5.35937,-6.81055 z"
       id="path6532"
       inkscape:connector-curvature="0" />
    <path
       style="fill:#000000"
       d="m -422.45703,244.38281 c -6.44842,0.13774 -13.14476,2.06465 -22.18555,5.95313 -4.39583,1.89066 -7.70464,2.29583 -25,3.07031 -19.82185,0.88762 -20.78414,1.00675 -28,3.47461 -9.78704,3.34721 -14.88781,6.79732 -25.42578,17.19336 -7.25192,7.15423 -7.16904,8.2863 0.62891,8.64453 5.53814,0.25441 14.73655,5.30227 15.80664,8.67383 0.32754,1.03197 1.80931,2.51472 3.29297,3.29492 1.48365,0.7802 4.76648,2.55197 7.29492,3.9375 4.67599,2.56232 17.34874,5.46634 26.40234,6.05078 9.11191,0.5882 13.98585,-0.0971 30.02344,-4.22266 7.70071,-1.98095 17.00176,-9.84668 21.39844,-18.0957 1.75756,-3.29753 3.86359,-5.99609 4.68164,-5.99609 1.6805,0 6.37182,-9.33296 6.38672,-12.70703 0.0116,-2.62051 6.9852,-10.29297 9.35546,-10.29297 1.81784,0 2.22745,-1.52643 0.66797,-2.49024 -0.54278,-0.33546 -4.92788,-1.97573 -9.74414,-3.64453 -5.70322,-1.97613 -10.56855,-2.95088 -15.58398,-2.84375 z"
       id="path6524"
       inkscape:connector-curvature="0" />
    <path
       style="fill:#ffffff"
       d="m -427.75391,247.74609 c -0.11953,-0.005 -0.25117,0.0302 -0.38867,0.11524 -0.55,0.33992 -1,1.043 -1,1.56055 0,0.51752 0.45,0.93945 1,0.93945 0.55,0 1,-0.70114 1,-1.5586 0,-0.64309 -0.25273,-1.04074 -0.61133,-1.05664 z m -3.38867,0.61524 c -0.55,0 -0.99237,1.0125 -0.98437,2.25 0.0124,1.81944 0.2005,1.96296 0.98437,0.75 0.53316,-0.825 0.97638,-1.8375 0.98438,-2.25 0.008,-0.4125 -0.43438,-0.75 -0.98438,-0.75 z m -3.61328,1.36328 c -0.11872,0.007 -0.24922,0.0517 -0.38672,0.13672 -0.55,0.33992 -0.99237,1.6055 -0.98437,2.81055 0.0125,1.78122 0.19628,1.90893 0.98437,0.68945 0.53316,-0.825 0.97638,-2.08864 0.98438,-2.8086 0.006,-0.53997 -0.2415,-0.85032 -0.59766,-0.82812 z m -3.91992,1.09961 c -0.18087,-0.0674 -0.3086,0.50586 -0.3086,1.53711 0,1.375 0.2265,1.9375 0.50391,1.25 0.27741,-0.6875 0.27741,-1.8125 0,-2.5 -0.0693,-0.17188 -0.13501,-0.26461 -0.19531,-0.28711 z m -6.85547,2.88086 c -0.35859,-0.0603 -0.61133,0.16081 -0.61133,0.59765 0,0.58246 0.45,1.0586 1,1.0586 0.55,0 1,-0.19693 1,-0.43945 0,-0.24254 -0.45,-0.72063 -1,-1.06055 -0.1375,-0.085 -0.26914,-0.13615 -0.38867,-0.15625 z m 34.78516,0.78515 c -0.52385,0.0208 -1.22076,0.11771 -2.14649,0.25196 -2.0625,0.2991 -3.9211,0.56123 -4.1289,0.58203 -0.76996,0.077 0.90827,7.86297 2.50781,11.63672 l 1.65429,3.90039 1.78126,-5 c 0.97955,-2.75 1.81482,-6.49771 1.85742,-8.33008 0.0574,-2.4673 0.0462,-3.10352 -1.52539,-3.04102 z m -44.89063,0.20313 c -0.13645,-0.008 -0.27048,0.0229 -0.39453,0.0996 -0.5238,0.32373 -0.42071,2.3436 0.24414,4.81445 l 1.14453,4.25391 0.32031,-3.34375 c 0.17625,-1.83985 0.0677,-4.00695 -0.24218,-4.81446 -0.23241,-0.60561 -0.66292,-0.98606 -1.07227,-1.00976 z m 3.92383,0.46484 c -0.12935,0.0698 -0.22168,0.67188 -0.23438,1.70313 -0.0204,1.65 0.18701,2.44656 0.46094,1.76953 0.27391,-0.67703 0.2906,-2.02703 0.0371,-3 -0.0951,-0.36486 -0.18607,-0.51456 -0.26367,-0.47266 z m -15.41016,0.11133 c -0.16129,-0.0213 -0.33443,0.0727 -0.52734,0.26563 -0.82872,0.82871 0.67641,6.82617 1.71289,6.82617 0.55297,0 0.66121,-1.36706 0.25781,-3.25 -0.57141,-2.6672 -0.95946,-3.7779 -1.44336,-3.8418 z m 7.75391,0.0918 c -0.55652,0 -0.73746,1.00681 -0.4043,2.25 0.33164,1.2375 0.60919,2.8125 0.61719,3.5 0.008,0.6875 0.37294,1.25 0.8125,1.25 0.43953,0 0.61536,-1.575 0.39063,-3.5 -0.22476,-1.925 -0.86204,-3.5 -1.41602,-3.5 z m -17.29297,0.26562 c -0.0536,0.002 -0.10088,0.0228 -0.14258,0.0645 -0.33364,0.33364 -0.009,2.04823 0.72071,3.81054 1.59414,3.8486 2.46028,2.35772 0.94531,-1.62695 -0.51052,-1.34277 -1.14833,-2.26255 -1.52344,-2.24805 z m 5.04492,0.3418 c -0.11146,-0.0448 -0.20438,0.0145 -0.26758,0.19336 -0.45154,1.27878 1.68855,7.58683 2.34961,6.92578 0.18606,-0.18607 -0.16278,-2.11217 -0.77539,-4.28125 -0.45945,-1.6268 -0.97224,-2.70355 -1.30664,-2.83789 z m 8.9043,0.18945 c -0.12935,0.0698 -0.22168,0.67188 -0.23438,1.70313 -0.0204,1.65 0.18701,2.44656 0.46094,1.76953 0.27391,-0.67703 0.2906,-2.02703 0.0371,-3 -0.0951,-0.36486 -0.18607,-0.51456 -0.26367,-0.47266 z m -18.55078,0.20313 c -1.22099,0 -1.11211,0.64742 0.69531,4.14258 1.98338,3.83544 3.12372,2.95681 1.43945,-1.10938 -0.69076,-1.66763 -1.65149,-3.0332 -2.13476,-3.0332 z m -4.97266,1 c -1.00993,0 -0.53611,1.28504 1.39258,3.77539 1.48296,1.91481 2.0216,0.69387 0.74609,-1.68945 -0.61392,-1.14711 -1.57556,-2.08594 -2.13867,-2.08594 z m -4.21875,0.95312 c -0.40645,-0.0516 -0.6875,0.1637 -0.6875,0.71485 0,0.83345 3.37992,4.17711 3.83008,3.78906 0.18206,-0.15693 -0.17125,-1.22399 -0.78516,-2.37109 -0.65498,-1.22384 -1.68,-2.04672 -2.35742,-2.13282 z m -4.19922,0.98047 c -0.30249,-3.6e-4 -0.48828,0.20508 -0.48828,0.65625 0,0.53005 4.10686,4.29575 4.77344,4.37695 0.15018,0.0183 -0.4643,-1.09179 -1.36524,-2.46679 -1.02785,-1.56873 -2.25443,-2.5656 -2.91992,-2.56641 z m -3.42578,2.09961 c -0.9173,-0.0201 -0.40048,1.04878 1.42774,2.95703 3.35928,3.50633 4.51859,3.26409 1.85742,-0.38867 -1.01655,-1.39533 -2.49476,-2.55106 -3.28516,-2.56836 z m -3.83984,1.54688 c -0.0907,-0.009 -0.17591,-0.008 -0.25391,0.004 -0.0891,0.0137 -0.16938,0.0414 -0.23828,0.084 -0.56273,0.34779 0.038,1.40413 1.36914,2.4082 2.95959,2.23242 3.82229,1.60103 1.42774,-1.04492 -0.75552,-0.83484 -1.66997,-1.38967 -2.30469,-1.45117 z m -3.5,2.41992 c -0.5679,0 -0.21534,0.90444 0.7832,2.00781 2.06806,2.28519 3.44604,1.84595 1.51367,-0.48242 -0.69572,-0.8383 -1.72897,-1.52539 -2.29687,-1.52539 z m 82.96875,2.01562 c -0.71561,0.009 -0.5927,0.40192 0.30859,0.98438 1.92112,1.24153 2.2673,1.24153 1.5,0 -0.33992,-0.55 -1.15355,-0.99238 -1.80859,-0.98438 z m -89.18164,1.36524 c -0.12502,-0.0188 -0.22612,0.003 -0.29492,0.0723 -0.275,0.275 0.0784,1.1953 0.78515,2.04688 0.70675,0.85158 1.51016,1.32383 1.78516,1.04883 0.275,-0.275 -0.0784,-1.19725 -0.78516,-2.04883 -0.53006,-0.63869 -1.11517,-1.06254 -1.49023,-1.11914 z m -4.61133,3.5625 c -0.62564,0.0648 -0.94193,1.17929 -0.31641,2.1914 0.63003,1.01951 0.86636,1.02012 1.20508,0.004 0.2316,-0.69479 0.1487,-1.5349 -0.18359,-1.86719 -0.25413,-0.25412 -0.49653,-0.34972 -0.70508,-0.32812 z m 68.66016,0.0566 c -0.24254,0 -0.71868,0.45 -1.0586,1 -0.33992,0.55 -0.14105,1 0.44141,1 0.58246,0 1.05859,-0.45 1.05859,-1 0,-0.55 -0.19886,-1 -0.4414,-1 z m -51.10352,0.23242 c -0.48623,0.009 -2.15999,0.47405 -4.04297,1.13672 -3.84587,1.35345 -3.90985,1.45806 -3.74219,6.10547 0.0938,2.60048 0.73115,6.08094 1.41602,7.73437 l 1.24609,3.00586 1.50391,-2.85742 c 0.82741,-1.57155 2.06896,-5.55291 2.75976,-8.84766 0.69082,-3.29474 1.13713,-6.10895 0.99219,-6.2539 -0.0181,-0.0184 -0.0633,-0.0244 -0.13281,-0.0234 z m 80.09375,3.40039 c -0.51742,0.12014 -1.6252,0.94701 -3.29883,2.54688 -2.0625,1.97159 -4.85545,4.15326 -6.20508,4.84765 -3.7361,1.92223 -12.04492,3.91075 -12.04492,2.88281 0,-0.50022 0.52435,-0.91015 1.16602,-0.91015 0.64165,0 0.96688,-0.19913 0.72265,-0.44336 -0.24423,-0.24424 -3.56578,1.12676 -7.38086,3.04687 -6.17826,3.10951 -7.76031,3.48105 -14.47265,3.40235 -4.14486,-0.0486 -9.11016,0.18817 -11.03516,0.52539 -2.95657,0.51792 -8.92823,-0.44111 -22.97656,-3.68946 -2.25575,-0.52156 -2.53443,4.04021 -0.35352,5.78516 2.93209,2.34597 10.45705,5.498 15.33008,6.41992 8.19334,1.55008 23.68975,0.33102 33,-2.5957 14.08035,-4.42624 17.68359,-6.84518 25.10547,-16.84961 2.52736,-3.40683 3.30573,-5.16898 2.44336,-4.96875 z"
       id="path6522"
       inkscape:connector-curvature="0" />
    <path
       style="fill:#000000"
       d="m -405.41992,277.5 c -0.52493,-0.10865 -1.7038,2.07001 -2.74024,5.36133 -0.69279,2.2 -2.03328,5.125 -2.97851,6.5 -0.94524,1.375 -1.51988,3.06408 -1.27735,3.75195 0.28145,0.79823 -0.13189,1.03042 -1.14257,0.64258 -1.03989,-0.39904 -1.58399,-0.0553 -1.58399,1 0,0.88385 -0.40774,1.60547 -0.90625,1.60547 -0.49851,0 -0.65177,0.97717 -0.33984,2.16992 0.44986,1.72027 0.22361,2.03676 -1.09375,1.53125 -1.10101,-0.4225 -1.66016,-0.12212 -1.66016,0.89062 0,0.84022 -0.45,1.24813 -1,0.90821 -0.55,-0.33992 -1,0.11008 -1,1 0,0.88992 -0.45,1.33992 -1,1 -0.58579,-0.36204 -1.02735,0.75301 -1.06445,2.6914 -0.0572,2.98595 -0.15071,3.08892 -0.9668,1.0586 -0.85157,-2.11858 -2.11018,-3.13792 -1.85156,-1.5 0.0651,0.4125 0.0375,2.1 -0.0625,3.75 l -0.18164,3 -1.01563,-2.5 -1.01562,-2.5 -1.30274,3 -1.30468,3 -1.03907,-2.5 -1.04101,-2.5 -0.70508,3.26758 c -0.64446,2.98144 -0.82354,3.11206 -2.04687,1.5 -1.24683,-1.64305 -1.3415,-1.61111 -1.3711,0.48242 -0.0175,1.2375 -0.42821,2.25 -0.91406,2.25 -0.48585,0 -1.22583,-1.0125 -1.64258,-2.25 -0.71048,-2.10973 -0.78501,-2.0625 -1.20508,0.73633 l -0.44726,2.98437 -1.37696,-2.48437 c -1.22484,-2.21279 -1.38058,-2.2673 -1.42578,-0.48633 -0.0421,1.66073 -0.21459,1.74555 -1.01953,0.5 -0.81534,-1.26165 -0.97147,-1.20186 -0.98437,0.37305 -0.0127,1.55063 -0.27344,1.65788 -1.51563,0.62695 -1.25982,-1.04556 -1.5,-0.87281 -1.5,1.07031 0,2.24899 -0.0415,2.25803 -1.46875,0.37109 -0.8075,-1.06762 -1.4825,-1.39289 -1.5,-0.72265 -0.0175,0.67021 -0.70625,0.96111 -1.53125,0.64453 -0.98961,-0.37975 -1.52798,0.0561 -1.58008,1.28125 -0.0526,1.23734 -0.25988,1.40242 -0.62109,0.49414 -0.45768,-1.15087 -0.68975,-1.15087 -1.49609,0 -0.77312,1.10349 -1.0556,1.11334 -1.48047,0.0586 -0.39298,-0.97559 -0.86893,-0.84995 -1.89258,0.5 -1.30217,1.71725 -1.36909,1.70762 -1.42969,-0.19726 -0.0628,-1.97356 -0.0825,-1.97404 -1.53125,-0.0586 -0.80751,1.06762 -1.46875,1.40512 -1.46875,0.75 0,-1.84668 -1.80321,-1.40411 -2.27539,0.5586 -0.34691,1.44203 -0.61246,1.31005 -1.50976,-0.75 -0.78286,-1.7973 -1.10675,-2.00811 -1.15235,-0.75 -0.0733,2.02263 -1.62208,2.33519 -2.47851,0.5 -0.46666,-1 -0.70131,-1 -1.16797,0 -0.32084,0.6875 -1.02197,1.25 -1.5586,1.25 -0.53663,0 -0.70125,-0.44458 -0.36523,-0.98828 0.35034,-0.56686 -0.0515,-0.73407 -0.94141,-0.39258 -1.05694,0.40559 -1.556,0.003 -1.5664,-1.26172 -0.009,-1.12406 -0.30529,-1.4229 -0.75,-0.75781 -1.09369,1.63564 -4.42605,1.30153 -6.52539,-0.6543 -1.0167,-0.9472 -3.05489,-1.96921 -4.5293,-2.27148 -1.47441,-0.30227 -5.70116,-2.58497 -9.39453,-5.07227 -3.69336,-2.48731 -6.94969,-4.14349 -7.23633,-3.67969 -1.04682,1.69379 3.49743,5.81979 11.62695,10.55469 4.57816,2.66646 8.99922,5.40341 9.82422,6.08203 2.29238,1.88562 10.81457,4.51364 17.5,5.39649 8.75185,1.15574 8.32297,1.16587 17,-0.40821 9.79872,-1.77757 12.92059,-2.69724 18.02735,-5.3125 9.30342,-4.76444 15.93456,-12.30414 21.20312,-24.10742 2.61614,-5.86099 6.26953,-17.55677 6.26953,-20.07226 0,-0.58807 -0.10237,-0.8798 -0.27734,-0.91602 z"
       id="path6460"
       inkscape:connector-curvature="0" />
    <path
       style="fill:#000000"
       d="m -516.54102,368.50781 c 0.0734,0.0215 0.11881,0.0705 0.14258,0.13672 -0.0609,-0.0454 -0.12273,-0.0894 -0.18359,-0.13476 0.0114,0.002 0.0306,-0.005 0.041,-0.002 z"
       id="path6432"
       inkscape:connector-curvature="0" />
    <path
       style="fill:#000000"
       d="m -557.0293,380.76562 c 0.95484,0.63167 1.46026,1.14159 0.88672,1.23829 -0.4185,0.0706 -0.88728,0.13576 -1.38086,0.19726 0.40905,-0.49364 0.55605,-0.9749 0.49414,-1.43555 z"
       id="path6430"
       inkscape:connector-curvature="0" />
    <path
       style="fill:#000000"
       d="m -378.74609,381.4043 c 0.14121,0.36192 0.31524,0.68443 0.52734,0.95703 l -1.1543,0 0.62696,-0.95703 z"
       id="path6393"
       inkscape:connector-curvature="0" />
    <path
       style="opacity:1;fill:#ff00ff;fill-opacity:1;fill-rule:nonzero;stroke:none;stroke-width:1;stroke-miterlimit:4;stroke-dasharray:none;stroke-opacity:1"
       d=""
       id="path6418"
       inkscape:connector-curvature="0" />
  </g>
</svg>
