<svg
  width="100"
  height="100"
  viewBox="0 0 500 500"
  fill="none"
  xmlns="http://www.w3.org/2000/svg"
  style="overflow: visible; z-index: 6000"
>
  <path
    d="M208.333 197.917C208.333 215.167 199 229.167 187.5 229.167C176 229.167 166.667 215.167 166.667 197.917C166.667 180.667 176 166.667 187.5 166.667C199 166.667 208.333 180.667 208.333 197.917ZM312.5 229.167C324 229.167 333.333 215.167 333.333 197.917C333.333 180.667 324 166.667 312.5 166.667C301 166.667 291.667 180.667 291.667 197.917C291.667 215.167 301 229.167 312.5 229.167ZM196.813 299.958C195.17 298.68 193.288 297.743 191.278 297.202C189.268 296.661 187.17 296.527 185.107 296.808C183.045 297.089 181.059 297.779 179.267 298.838C177.475 299.897 175.913 301.303 174.672 302.975C173.431 304.646 172.536 306.548 172.041 308.57C171.545 310.592 171.459 312.692 171.786 314.748C172.114 316.804 172.849 318.773 173.948 320.541C175.047 322.309 176.489 323.839 178.188 325.042C198.925 340.539 224.112 348.927 250 348.958C275.888 348.927 301.075 340.539 321.813 325.042C323.511 323.839 324.953 322.309 326.052 320.541C327.151 318.773 327.886 316.804 328.214 314.748C328.541 312.692 328.455 310.592 327.959 308.57C327.464 306.548 326.569 304.646 325.328 302.975C324.087 301.303 322.525 299.897 320.733 298.838C318.941 297.779 316.955 297.089 314.893 296.808C312.83 296.527 310.732 296.661 308.722 297.202C306.712 297.743 304.83 298.68 303.188 299.958C287.835 311.454 269.179 317.68 250 317.708C230.821 317.68 212.165 311.454 196.813 299.958Z"
    fill="white"
  />
  <path
    fill-rule="evenodd"
    clip-rule="evenodd"
    d="M250 26.0416C125.875 26.0416 26.0417 129.562 26.0417 256.25V410.896C26.0417 449.375 65.875 475.958 100.896 457.937C107.852 454.342 115.655 452.708 123.469 453.21C131.283 453.713 138.813 456.334 145.25 460.792C157.671 469.365 172.407 473.957 187.5 473.957C202.593 473.957 217.329 469.365 229.75 460.792L237.104 455.75C240.89 453.12 245.39 451.71 250 451.71C254.61 451.71 259.11 453.12 262.896 455.75L270.25 460.792C282.671 469.365 297.407 473.957 312.5 473.957C327.593 473.957 342.329 469.365 354.75 460.792C361.19 456.33 368.723 453.707 376.541 453.204C384.359 452.701 392.167 454.338 399.125 457.937C434.125 475.958 473.958 449.354 473.958 410.896V256.271C473.958 129.562 374.125 26.0416 250 26.0416ZM57.2917 256.25C57.2917 145.937 144 57.2916 250 57.2916C356 57.2916 442.708 145.937 442.708 256.25V410.896C442.708 427.521 426.25 436.771 413.417 430.146C401.44 423.968 388.01 421.16 374.562 422.023C361.113 422.885 348.152 427.385 337.062 435.042C329.847 440.041 321.278 442.72 312.5 442.72C303.722 442.72 295.153 440.041 287.937 435.042L280.583 429.979C271.591 423.775 260.925 420.453 250 420.453C239.075 420.453 228.409 423.775 219.417 429.979L212.062 435.021C204.847 440.021 196.278 442.699 187.5 442.699C178.722 442.699 170.153 440.021 162.937 435.021C151.846 427.367 138.884 422.871 125.435 422.012C111.987 421.154 98.558 423.965 86.5833 430.146C73.7292 436.771 57.2917 427.521 57.2917 410.896V256.25Z"
    fill="white"
  />

  <!-- Animate movement from left to right -->
  <animateTransform
    attributeName="transform"
    type="translate"
    values="-50,0; 550,0; -50,0"
    dur="10s"
    repeatCount="indefinite"
  />

  <!-- Animate floating effect -->
  <animateTransform
    attributeName="transform"
    type="translate"
    values="0,0; 0,-10; 0,0; 0,10; 0,0"
    dur="5s"
    repeatCount="indefinite"
    additive="sum"
  />
</svg>
