<?xml version="1.0" encoding="iso-8859-1"?>
<!-- Uploaded to: SVG Repo, www.svgrepo.com, Generator: SVG Repo Mixer Tools -->
<!DOCTYPE svg PUBLIC "-//W3C//DTD SVG 1.1//EN" "http://www.w3.org/Graphics/SVG/1.1/DTD/svg11.dtd">
<svg fill="#000000" height="800px" width="800px" version="1.1" id="Capa_1" xmlns="http://www.w3.org/2000/svg" xmlns:xlink="http://www.w3.org/1999/xlink" 
	 viewBox="0 0 490.75 490.75" xml:space="preserve">
<g id="XMLID_384_">
	<path id="XMLID_390_" d="M289.338,113.93c-9.081,0-16.429,10.077-16.429,22.51c0,12.449,7.349,22.523,16.429,22.523
		c9.08,0,16.422-10.074,16.422-22.523C305.761,124.007,298.418,113.93,289.338,113.93z"/>
	<path id="XMLID_386_" d="M292.61,0c-82.903,0-150.125,79.955-150.125,178.566c0,93.109,0.34,167.109-91.757,290.264
		c-3.178,4.233-3.624,9.898-1.156,14.566c2.437,4.682,7.366,7.54,12.642,7.345C380.662,479.078,442.76,274.369,442.76,178.566
		C442.76,79.955,375.544,0,292.61,0z M282.839,195.713c-19.991,0-36.174-25.813-36.174-57.639c0-31.827,16.183-57.637,36.174-57.637
		c19.969,0,36.173,25.81,36.173,57.637C319.011,169.9,302.808,195.713,282.839,195.713z M371.136,195.713
		c-19.97,0-36.173-25.813-36.173-57.639c0-31.827,16.203-57.637,36.173-57.637c19.99,0,36.173,25.81,36.173,57.637
		C407.309,169.9,391.125,195.713,371.136,195.713z"/>
	<path id="XMLID_385_" d="M364.636,113.93c-9.081,0-16.422,10.077-16.422,22.51c0,12.449,7.342,22.523,16.422,22.523
		c9.082,0,16.429-10.074,16.429-22.523C381.064,124.007,373.717,113.93,364.636,113.93z"/>
</g>
</svg>