<svg width="800" height="800" viewBox="0 0 800 800" fill="none" xmlns="http://www.w3.org/2000/svg">
<g clip-path="url(#clip0_29_2)">
<path d="M471.667 185.724C456.863 185.724 444.885 202.151 444.885 222.419C444.885 242.713 456.865 259.135 471.667 259.135C486.468 259.135 498.437 242.713 498.437 222.419C498.439 202.151 486.468 185.724 471.667 185.724Z" fill="white"/>
<path d="M477 0C341.855 0 232.273 130.339 232.273 291.091C232.273 442.873 232.827 563.505 82.6946 764.267C77.514 771.167 76.7869 780.402 80.8102 788.012C84.7829 795.644 92.8179 800.303 101.419 799.985C620.539 780.973 721.769 447.265 721.769 291.091C721.769 130.339 612.196 0 477 0ZM461.072 319.043C428.484 319.043 402.103 276.964 402.103 225.082C402.103 173.199 428.484 131.125 461.072 131.125C493.625 131.125 520.04 173.199 520.04 225.082C520.038 276.964 493.625 319.043 461.072 319.043ZM605.01 319.043C572.456 319.043 546.043 276.964 546.043 225.082C546.043 173.199 572.456 131.125 605.01 131.125C637.597 131.125 663.978 173.199 663.978 225.082C663.978 276.964 637.595 319.043 605.01 319.043Z" fill="white"/>
<path d="M594.414 185.724C579.611 185.724 567.644 202.151 567.644 222.419C567.644 242.713 579.612 259.135 594.414 259.135C609.219 259.135 621.196 242.713 621.196 222.419C621.195 202.151 609.218 185.724 594.414 185.724Z" fill="white"/>
</g>
<defs>
<clipPath id="clip0_29_2">
<rect width="800" height="800" fill="white"/>
</clipPath>
</defs>
</svg>
