<svg width="128" height="128" viewBox="0 0 128 128" fill="none" xmlns="http://www.w3.org/2000/svg">
<path d="M13.3333 64C13.3333 40.1173 13.3333 28.1707 20.752 20.752C28.1707 13.3333 40.112 13.3333 64 13.3333C87.8827 13.3333 99.8293 13.3333 107.248 20.752C114.667 28.1707 114.667 40.112 114.667 64C114.667 87.8827 114.667 99.8293 107.248 107.248C99.8293 114.667 87.888 114.667 64 114.667C40.1173 114.667 28.1707 114.667 20.752 107.248C13.3333 99.8293 13.3333 87.888 13.3333 64Z" stroke="black" stroke-width="1.5" stroke-linecap="round" stroke-linejoin="round"/>
<path d="M33.918 65.0703V65.8789C33.918 67.1758 33.7422 68.3398 33.3906 69.3711C33.0391 70.4023 32.543 71.2812 31.9023 72.0078C31.2617 72.7266 30.4961 73.2773 29.6055 73.6602C28.7227 74.043 27.7422 74.2344 26.6641 74.2344C25.5938 74.2344 24.6133 74.043 23.7227 73.6602C22.8398 73.2773 22.0742 72.7266 21.4258 72.0078C20.7773 71.2812 20.2734 70.4023 19.9141 69.3711C19.5625 68.3398 19.3867 67.1758 19.3867 65.8789V65.0703C19.3867 63.7656 19.5625 62.6016 19.9141 61.5781C20.2656 60.5469 20.7617 59.668 21.4023 58.9414C22.0508 58.2148 22.8164 57.6602 23.6992 57.2773C24.5898 56.8945 25.5703 56.7031 26.6406 56.7031C27.7188 56.7031 28.6992 56.8945 29.582 57.2773C30.4727 57.6602 31.2383 58.2148 31.8789 58.9414C32.5273 59.668 33.0273 60.5469 33.3789 61.5781C33.7383 62.6016 33.918 63.7656 33.918 65.0703ZM30.3672 65.8789V65.0469C30.3672 64.1406 30.2852 63.3438 30.1211 62.6562C29.957 61.9688 29.7148 61.3906 29.3945 60.9219C29.0742 60.4531 28.6836 60.1016 28.2227 59.8672C27.7617 59.625 27.2344 59.5039 26.6406 59.5039C26.0469 59.5039 25.5195 59.625 25.0586 59.8672C24.6055 60.1016 24.2188 60.4531 23.8984 60.9219C23.5859 61.3906 23.3477 61.9688 23.1836 62.6562C23.0195 63.3438 22.9375 64.1406 22.9375 65.0469V65.8789C22.9375 66.7773 23.0195 67.5742 23.1836 68.2695C23.3477 68.957 23.5898 69.5391 23.9102 70.0156C24.2305 70.4844 24.6211 70.8398 25.082 71.082C25.543 71.3242 26.0703 71.4453 26.6641 71.4453C27.2578 71.4453 27.7852 71.3242 28.2461 71.082C28.707 70.8398 29.0938 70.4844 29.4062 70.0156C29.7188 69.5391 29.957 68.957 30.1211 68.2695C30.2852 67.5742 30.3672 66.7773 30.3672 65.8789ZM43.2812 56.9375V74H39.7773V56.9375H43.2812ZM48.5312 56.9375V59.6914H34.6094V56.9375H48.5312ZM61.9141 63.8867V66.6289H53.0078V63.8867H61.9141ZM54.0508 56.9375V74H50.5352V56.9375H54.0508ZM64.4219 56.9375V74H60.918V56.9375H64.4219ZM78.9297 71.2578V74H69.8477V71.2578H78.9297ZM70.9961 56.9375V74H67.4805V56.9375H70.9961ZM77.7461 63.8867V66.5586H69.8477V63.8867H77.7461ZM78.918 56.9375V59.6914H69.8477V56.9375H78.918ZM80.9805 56.9375H87.3438C88.6484 56.9375 89.7695 57.1328 90.707 57.5234C91.6523 57.9141 92.3789 58.4922 92.8867 59.2578C93.3945 60.0234 93.6484 60.9648 93.6484 62.082C93.6484 62.9961 93.4922 63.7812 93.1797 64.4375C92.875 65.0859 92.4414 65.6289 91.8789 66.0664C91.3242 66.4961 90.6719 66.8398 89.9219 67.0977L88.8086 67.6836H83.2773L83.2539 64.9414H87.3672C87.9844 64.9414 88.4961 64.832 88.9023 64.6133C89.3086 64.3945 89.6133 64.0898 89.8164 63.6992C90.0273 63.3086 90.1328 62.8555 90.1328 62.3398C90.1328 61.793 90.0312 61.3203 89.8281 60.9219C89.625 60.5234 89.3164 60.2188 88.9023 60.0078C88.4883 59.7969 87.9688 59.6914 87.3438 59.6914H84.4961V74H80.9805V56.9375ZM90.5195 74L86.6289 66.3945L90.3438 66.3711L94.2812 73.8359V74H90.5195ZM105.238 69.5352C105.238 69.2305 105.191 68.957 105.098 68.7148C105.012 68.4648 104.848 68.2383 104.605 68.0352C104.363 67.8242 104.023 67.6172 103.586 67.4141C103.148 67.2109 102.582 67 101.887 66.7812C101.113 66.5312 100.379 66.25 99.6836 65.9375C98.9961 65.625 98.3867 65.2617 97.8555 64.8477C97.332 64.4258 96.918 63.9375 96.6133 63.3828C96.3164 62.8281 96.168 62.1836 96.168 61.4492C96.168 60.7383 96.3242 60.0938 96.6367 59.5156C96.9492 58.9297 97.3867 58.4297 97.9492 58.0156C98.5117 57.5938 99.1758 57.2695 99.9414 57.043C100.715 56.8164 101.562 56.7031 102.484 56.7031C103.742 56.7031 104.84 56.9297 105.777 57.3828C106.715 57.8359 107.441 58.457 107.957 59.2461C108.48 60.0352 108.742 60.9375 108.742 61.9531H105.25C105.25 61.4531 105.145 61.0156 104.934 60.6406C104.73 60.2578 104.418 59.957 103.996 59.7383C103.582 59.5195 103.059 59.4102 102.426 59.4102C101.816 59.4102 101.309 59.5039 100.902 59.6914C100.496 59.8711 100.191 60.1172 99.9883 60.4297C99.7852 60.7344 99.6836 61.0781 99.6836 61.4609C99.6836 61.75 99.7539 62.0117 99.8945 62.2461C100.043 62.4805 100.262 62.6992 100.551 62.9023C100.84 63.1055 101.195 63.2969 101.617 63.4766C102.039 63.6562 102.527 63.832 103.082 64.0039C104.012 64.2852 104.828 64.6016 105.531 64.9531C106.242 65.3047 106.836 65.6992 107.312 66.1367C107.789 66.5742 108.148 67.0703 108.391 67.625C108.633 68.1797 108.754 68.8086 108.754 69.5117C108.754 70.2539 108.609 70.918 108.32 71.5039C108.031 72.0898 107.613 72.5859 107.066 72.9922C106.52 73.3984 105.867 73.707 105.109 73.918C104.352 74.1289 103.504 74.2344 102.566 74.2344C101.723 74.2344 100.891 74.125 100.07 73.9062C99.25 73.6797 98.5039 73.3398 97.832 72.8867C97.168 72.4336 96.6367 71.8555 96.2383 71.1523C95.8398 70.4492 95.6406 69.6172 95.6406 68.6562H99.168C99.168 69.1875 99.25 69.6367 99.4141 70.0039C99.5781 70.3711 99.8086 70.668 100.105 70.8945C100.41 71.1211 100.77 71.2852 101.184 71.3867C101.605 71.4883 102.066 71.5391 102.566 71.5391C103.176 71.5391 103.676 71.4531 104.066 71.2812C104.465 71.1094 104.758 70.8711 104.945 70.5664C105.141 70.2617 105.238 69.918 105.238 69.5352Z" fill="black"/>
</svg>
