<svg width="56" height="56" viewBox="0 0 56 56" fill="none" xmlns="http://www.w3.org/2000/svg">
<path d="M5.454 43.096H50.546C54.175 43.096 56 41.356 56 37.643V13.324C56 9.61097 54.175 7.87097 50.546 7.87097H5.454C1.824 7.86997 0 9.60997 0 13.324V37.643C0 41.356 1.825 43.096 5.454 43.096ZM5.517 39.68C4.074 39.68 3.417 39.086 3.417 37.6V13.388C3.417 11.881 4.074 11.288 5.517 11.288H50.483C51.947 11.288 52.583 11.881 52.583 13.388V37.6C52.583 39.086 51.947 39.68 50.483 39.68H5.517ZM43.437 48.995C43.437 47.892 42.547 47.001 41.464 47.001H14.494C13.411 47.001 12.541 47.891 12.541 48.995C12.541 50.099 13.411 50.99 14.493 50.99H41.463C41.989 50.9863 42.4922 50.7742 42.8622 50.4003C43.2322 50.0264 43.4389 49.521 43.437 48.995Z" fill="#ED6C30"/>
</svg>
