<svg width="128" height="128" viewBox="0 0 128 128" fill="none" xmlns="http://www.w3.org/2000/svg">
<path d="M117.333 85.3333C117.333 100.416 117.333 107.963 112.645 112.645C107.963 117.333 100.416 117.333 85.3333 117.333H42.6667C27.584 117.333 20.0374 117.333 15.3547 112.645C10.6667 107.963 10.6667 100.416 10.6667 85.3333V64C10.6667 48.9173 10.6667 41.3707 15.3547 36.688C20.0374 32 27.584 32 42.6667 32H85.3333C100.416 32 107.963 32 112.645 36.688C117.333 41.3707 117.333 48.9173 117.333 64V85.3333Z" stroke="black" stroke-width="1.5"/>
<path d="M48 10.6667L64 29.3333L80 10.6667M85.3333 32V117.333" stroke="black" stroke-width="1.5" stroke-linecap="round"/>
<path d="M106.667 85.3333C106.667 83.9189 106.105 82.5623 105.105 81.5621C104.104 80.5619 102.748 80 101.333 80C99.9188 80 98.5623 80.5619 97.5621 81.5621C96.5619 82.5623 96 83.9189 96 85.3333C96 86.7478 96.5619 88.1044 97.5621 89.1046C98.5623 90.1048 99.9188 90.6667 101.333 90.6667C102.748 90.6667 104.104 90.1048 105.105 89.1046C106.105 88.1044 106.667 86.7478 106.667 85.3333ZM106.667 64C106.667 62.5855 106.105 61.229 105.105 60.2288C104.104 59.2286 102.748 58.6667 101.333 58.6667C99.9188 58.6667 98.5623 59.2286 97.5621 60.2288C96.5619 61.229 96 62.5855 96 64C96 65.4145 96.5619 66.771 97.5621 67.7712C98.5623 68.7714 99.9188 69.3333 101.333 69.3333C102.748 69.3333 104.104 68.7714 105.105 67.7712C106.105 66.771 106.667 65.4145 106.667 64Z" fill="black"/>
</svg>
