<svg width="128" height="128" viewBox="0 0 128 128" fill="none" xmlns="http://www.w3.org/2000/svg">
<path d="M106.667 37.3333H21.3333C15.4423 37.3333 10.6667 42.109 10.6667 48V106.667C10.6667 112.558 15.4423 117.333 21.3333 117.333H106.667C112.558 117.333 117.333 112.558 117.333 106.667V48C117.333 42.109 112.558 37.3333 106.667 37.3333Z" stroke="black" stroke-width="2" stroke-linecap="round" stroke-linejoin="round"/>
<path d="M90.6667 10.6667L64 37.3333L37.3333 10.6667" stroke="black" stroke-width="2" stroke-linecap="round" stroke-linejoin="round"/>
<path d="M57.2773 68.9375V86H53.7734V68.9375H57.2773ZM62.5273 68.9375V71.6914H48.6055V68.9375H62.5273ZM70.8711 82.4375L74.8906 68.9375H78.8047L72.8633 86H70.2852L70.8711 82.4375ZM67.168 68.9375L71.1758 82.4375L71.7852 86H69.1836L63.2773 68.9375H67.168Z" fill="black"/>
</svg>
