<svg width="128" height="128" viewBox="0 0 128 128" fill="none" xmlns="http://www.w3.org/2000/svg">
<path fill-rule="evenodd" clip-rule="evenodd" d="M85.3333 32H42.6667C27.584 32 20.0373 32 15.3547 36.688C10.6667 41.3707 10.6667 48.9173 10.6667 64V85.3333C10.6667 100.416 10.6667 107.963 15.3547 112.645C20.0373 117.333 27.584 117.333 42.6667 117.333H85.3333V32Z" fill="black"/>
<path opacity="0.5" d="M117.333 64V85.3333C117.333 100.416 117.333 107.957 112.645 112.645C108.245 117.045 101.323 117.317 88 117.333H85.3333V32H88C101.323 32.016 108.245 32.2827 112.645 36.6827C117.333 41.376 117.333 48.912 117.333 64ZM71.552 32L83.0347 18.6027C83.6846 17.7929 83.9943 16.7622 83.8981 15.7283C83.8019 14.6944 83.3075 13.7384 82.5193 13.0625C81.7312 12.3865 80.711 12.0435 79.6746 12.106C78.6381 12.1685 77.6666 12.6316 76.9653 13.3973L64 28.5227L51.04 13.3973C50.3497 12.5911 49.3674 12.092 48.3092 12.01C47.251 11.928 46.2036 12.2697 45.3973 12.96C44.5911 13.6503 44.092 14.6326 44.01 15.6908C43.928 16.749 44.2697 17.7964 44.96 18.6027L56.4533 32H71.552Z" fill="black"/>
<path d="M101.333 58.6667C102.748 58.6667 104.104 59.2286 105.105 60.2288C106.105 61.229 106.667 62.5855 106.667 64C106.667 65.4145 106.105 66.771 105.105 67.7712C104.104 68.7714 102.748 69.3333 101.333 69.3333C99.9188 69.3333 98.5623 68.7714 97.5621 67.7712C96.5619 66.771 96 65.4145 96 64C96 62.5855 96.5619 61.229 97.5621 60.2288C98.5623 59.2286 99.9188 58.6667 101.333 58.6667ZM101.333 80C102.748 80 104.104 80.5619 105.105 81.5621C106.105 82.5623 106.667 83.9188 106.667 85.3333C106.667 86.7478 106.105 88.1044 105.105 89.1046C104.104 90.1048 102.748 90.6667 101.333 90.6667C99.9188 90.6667 98.5623 90.1048 97.5621 89.1046C96.5619 88.1044 96 86.7478 96 85.3333C96 83.9188 96.5619 82.5623 97.5621 81.5621C98.5623 80.5619 99.9188 80 101.333 80Z" fill="black"/>
</svg>
