<svg width="800" height="800" viewBox="0 0 800 800" fill="none" xmlns="http://www.w3.org/2000/svg">
<g clip-path="url(#clip0_45_6)">
<path d="M237.079 312.593C106.857 301.943 51.392 354.628 49.0949 356.875C45.7574 360.14 45.5177 365.429 48.5463 368.979C49.5103 370.11 72.3082 396.435 123.413 423.7C133.636 452.589 152.309 486.342 186.283 517.188C187.949 518.699 190.084 519.493 192.252 519.493C193.383 519.493 194.521 519.278 195.605 518.834C198.771 517.542 200.912 514.549 201.112 511.135L204.285 456.956C260.626 474.119 329.583 483.512 399.998 483.512C470.414 483.512 539.374 474.119 595.714 456.956L598.884 511.135C599.083 514.549 601.224 517.542 604.391 518.834C605.476 519.278 606.614 519.493 607.745 519.493C609.912 519.493 612.05 518.699 613.713 517.188C647.688 486.342 666.362 452.589 676.584 423.7C727.687 396.435 750.488 370.108 751.45 368.981C754.481 365.429 754.241 360.14 750.903 356.875C748.606 354.626 693.128 301.94 562.917 312.593C500.569 317.695 450.398 321.445 400.169 321.448C349.943 321.452 299.659 317.711 237.079 312.593ZM298.588 420.849L302.396 335.304C351.864 338.633 378.596 339.394 391.124 339.522V426.26C355.982 425.942 324.91 423.76 298.588 420.849ZM408.875 339.524C421.403 339.396 448.134 338.635 497.606 335.304L501.408 420.859C475.106 423.765 444.041 425.942 408.875 426.26V339.524ZM284.679 334.07L280.914 418.701C243.875 413.788 218.471 407.786 207.233 404.83L210.571 329.022C218.575 329.169 226.917 329.57 235.629 330.285C253.782 331.771 270.069 333.019 284.679 334.07ZM68.5677 364.054C76.1907 358.706 90.1265 350.39 110.988 343.192C108.749 366.284 115.783 396.909 116.336 399.325C92.2159 384.905 76.5954 371.635 68.5677 364.054ZM184.533 490.577C163.601 468.204 148.415 442.867 139.106 414.909C139.085 414.841 139.063 414.775 139.04 414.708C136.34 406.567 134.11 398.216 132.415 389.636C127.723 365.913 128.367 346.804 129.127 337.759C146.656 333.264 167.792 329.893 192.795 329.123L184.533 490.577ZM399.998 465.761C329.535 465.761 260.77 456.148 205.355 438.669L206.275 422.959C231.64 429.437 299.953 444.053 399.998 444.053C500.043 444.053 568.359 429.439 593.724 422.959L594.645 438.669C539.228 456.148 470.465 465.761 399.998 465.761ZM615.462 490.551L607.201 329.126C632.206 329.897 653.342 333.268 670.868 337.761C672.549 357.9 673.539 428.23 615.462 490.551ZM683.662 399.325C684.216 396.909 690.516 367.142 689.011 343.192C709.884 350.394 723.82 358.711 731.432 364.053C723.399 371.638 707.777 384.907 683.662 399.325ZM564.368 330.285C573.079 329.574 581.421 329.171 589.426 329.023L592.765 404.838C581.536 407.797 556.155 413.806 519.084 418.715L515.323 334.069C529.931 333.019 546.218 331.771 564.368 330.285Z" fill="#B4B4B4"/>
<path d="M796.831 345.975C796.29 345.521 742.018 300.097 678.927 258.043C592.493 200.431 531 176.333 496.185 186.406C488.312 188.684 481.259 190.965 474.438 193.171C451.193 200.688 432.826 206.628 400 206.946C367.177 206.628 348.809 200.69 325.565 193.171C318.743 190.967 311.69 188.685 303.815 186.406C268.989 176.333 207.505 200.431 121.073 258.043C57.9818 300.097 3.71031 345.521 3.16886 345.975C-0.0354871 348.667 -0.926668 353.229 1.03144 356.927C2.43213 359.572 36.0875 422.45 102.053 486.242C140.874 523.784 182.825 553.714 226.743 575.204C281.819 602.156 340.112 615.822 399.998 615.822C459.885 615.822 518.176 602.156 573.255 575.204C617.171 553.714 659.124 523.782 697.944 486.242C763.909 422.45 797.566 359.574 798.967 356.927C800.925 353.229 800.034 348.667 796.831 345.975ZM685.604 473.478C626.829 530.317 529.567 598.069 399.998 598.069C270.642 598.069 173.502 530.524 114.79 473.861C62.4679 423.366 30.4315 372.256 20.254 354.857C83.3379 302.822 240.743 186.646 298.879 203.459C306.488 205.66 313.408 207.899 320.101 210.065C343.829 217.738 364.323 224.365 399.915 224.7C399.943 224.7 399.97 224.7 400 224.7C400.014 224.7 400.027 224.697 400.041 224.697C400.055 224.697 400.069 224.7 400.082 224.7C435.676 224.365 456.169 217.738 479.899 210.063C486.592 207.899 493.51 205.662 501.117 203.459C559.248 186.66 716.659 302.829 779.748 354.86C769.615 372.203 737.784 423.023 685.604 473.478Z" fill="#B4B4B4"/>
</g>
<defs>
<clipPath id="clip0_45_6">
<rect width="800" height="800" fill="white"/>
</clipPath>
</defs>
</svg>
